<svg width="56" height="56" viewBox="0 0 56 56" fill="none" xmlns="http://www.w3.org/2000/svg">
<g clip-path="url(#clip0_2_187)">
<mask id="mask0_2_187" style="mask-type:alpha" maskUnits="userSpaceOnUse" x="0" y="0" width="56" height="56">
<path d="M0 0H56V56H0V0Z" fill="#D9D9D9"/>
</mask>
<g mask="url(#mask0_2_187)">
<path fill-rule="evenodd" clip-rule="evenodd" d="M35.143 11.667H20.857C14.128 11.667 11.667 14.128 11.667 20.857V35.143C11.667 41.872 14.128 44.333 20.857 44.333H35.138C41.868 44.333 44.333 41.872 44.333 35.143V20.857C44.333 14.128 41.872 11.667 35.143 11.667ZM25.918 30.612H27.228L26.571 29.084L25.918 30.612ZM25.596 31.382L25.207 32.271H24.323L26.204 28.003H26.969L28.843 32.271H27.933L27.55 31.381L25.596 31.382ZM39.833 32.269H40.688V28.003H39.833V32.269ZM36.429 30.436H38.005V29.658H36.43V28.784H38.718V28.006H35.575V32.271H38.8V31.493H36.43L36.429 30.436ZM33.032 30.94L32.062 28.002H31.355L30.385 30.94L29.442 28.005H28.52L30.008 32.274H30.726L31.696 29.47L32.668 32.274H33.391L34.876 28.004H33.978L33.032 30.94ZM23.017 30.448C23.017 31.142 22.672 31.513 22.047 31.513C21.417 31.513 21.07 31.131 21.07 30.418V28.005H20.204V30.448C20.204 31.648 20.871 32.338 22.034 32.338C23.21 32.338 23.884 31.636 23.884 30.412V28.003H23.017V30.448ZM18.136 28.003H19.003V32.274H18.136V30.54H16.179V32.274H15.313V28.003H16.179V29.726H18.136V28.003ZM22.562 17.128C22.5636 18.5698 23.137 19.952 24.1565 20.9715C25.176 21.991 26.5582 22.5644 28 22.566C29.4418 22.5644 30.824 21.991 31.8435 20.9715C32.863 19.952 33.4364 18.5698 33.438 17.128H32.669C32.6679 18.3662 32.1756 19.5534 31.3 20.429C30.4244 21.3046 29.2372 21.7969 27.999 21.798C26.7611 21.7964 25.5744 21.3038 24.6993 20.4283C23.8241 19.5528 23.3321 18.3659 23.331 17.128H22.562Z" fill="#5A6472"/>
</g>
</g>
<defs>
<clipPath id="clip0_2_187">
<rect width="56" height="56" fill="white"/>
</clipPath>
</defs>
</svg>
