<svg width="56" height="56" viewBox="0 0 56 56" fill="none" xmlns="http://www.w3.org/2000/svg">
<path fill-rule="evenodd" clip-rule="evenodd" d="M34.5341 9.33301C34.7541 11.265 33.9591 13.169 32.7971 14.569C31.5841 15.947 29.6441 17.001 27.7551 16.865C27.5071 15.005 28.4651 13.029 29.5371 11.823C30.7471 10.453 32.8521 9.40501 34.5341 9.33301ZM40.7191 20.48C40.5091 20.6 37.0141 22.61 37.0521 26.705C37.0961 31.652 41.5451 33.287 41.6001 33.305C41.5731 33.42 40.9031 35.665 39.2341 37.944C37.8411 39.95 36.3801 41.912 34.0621 41.948C32.9591 41.972 32.2151 41.668 31.4391 41.349C30.6291 41.017 29.7871 40.671 28.4671 40.671C27.0691 40.671 26.1881 41.028 25.3391 41.372C24.6051 41.67 23.8941 41.958 22.8921 41.998C20.6831 42.076 18.9961 39.856 17.5521 37.868C14.6651 33.807 12.4181 26.425 15.4311 21.402C16.8911 18.938 19.5531 17.352 22.3991 17.309C23.6521 17.285 24.8531 17.749 25.9071 18.157C26.7131 18.469 27.4321 18.747 28.0211 18.747C28.5381 18.747 29.2371 18.48 30.0511 18.169C31.3351 17.679 32.9061 17.078 34.5061 17.24C35.6001 17.27 38.7141 17.656 40.7231 20.477L40.7191 20.48Z" fill="#5A6472"/>
</svg>
