<svg width="56" height="56" viewBox="0 0 56 56" fill="none" xmlns="http://www.w3.org/2000/svg">
<path fill-rule="evenodd" clip-rule="evenodd" d="M27.6816 44.67C20.2892 44.67 16.593 44.67 14.2965 42.3735C12 40.077 12 36.3807 12 28.9883L12 27.6815C12 20.2891 12 16.5929 14.2965 14.2964C16.593 12 20.2892 12 27.6816 12L28.9884 12C36.3808 12 40.077 12 42.3735 14.2964C44.67 16.5929 44.67 20.2891 44.67 27.6815V28.9883C44.67 36.3807 44.67 40.077 42.3735 42.3735C40.077 44.67 36.3808 44.67 28.9884 44.67H27.6816Z" fill="#5A6472"/>
<path d="M30.8918 32.1334C30.0116 31.9135 29.3944 31.1261 29.3944 30.223V19.5838C29.3944 18.558 30.3637 17.8058 31.3634 18.0555L37.6947 19.6371C38.575 19.857 39.1922 20.6444 39.1922 21.5474V32.1867C39.1922 33.2124 38.2229 33.9647 37.2231 33.715L30.8918 32.1334Z" fill="white"/>
<path d="M18.9755 37.0323C18.0953 36.8124 17.4781 36.025 17.4781 35.1219V24.4827C17.4781 23.457 18.4474 22.7047 19.4471 22.9544L25.7785 24.536C26.6587 24.7559 27.2759 25.5433 27.2759 26.4464V37.0856C27.2759 38.1113 26.3066 38.8636 25.3068 38.6138L18.9755 37.0323Z" fill="white"/>
<path d="M24.9337 34.5828C24.0534 34.3629 23.4363 33.5755 23.4363 32.6725V22.0333C23.4363 21.0075 24.4055 20.2552 25.4053 20.505L31.7366 22.0866C32.6168 22.3065 33.234 23.0939 33.234 23.9969V34.6361C33.234 35.6619 32.2648 36.4142 31.265 36.1644L24.9337 34.5828Z" fill="white"/>
<path d="M29.0775 35.6208C28.8002 35.5501 28.6029 35.305 28.5932 35.019L28.3178 26.8939C28.2381 25.8185 27.4399 24.9633 26.6057 24.7114C26.5589 24.6973 26.5089 24.7163 26.4811 24.7566C26.4529 24.7976 26.4638 24.8543 26.5031 24.8847C26.7091 25.0441 27.2761 25.5645 27.2761 26.4621L27.2744 35.1638L29.0775 35.6208Z" fill="#505966"/>
<path d="M35.0371 33.1689C34.7601 33.0996 34.5625 32.8551 34.5529 32.5697L34.2774 24.4452C34.1977 23.3698 33.3995 22.5146 32.5653 22.2627C32.5185 22.2486 32.4685 22.2676 32.4407 22.3079C32.4125 22.3488 32.4234 22.4055 32.4627 22.436C32.6687 22.5954 33.2357 23.1158 33.2357 24.0133L33.234 32.7181L35.0371 33.1689Z" fill="#505966"/>
</svg>
