<svg width="56" height="56" viewBox="0 0 56 56" fill="none" xmlns="http://www.w3.org/2000/svg">
<path fill-rule="evenodd" clip-rule="evenodd" d="M29.671 26.822L14.985 12.136C15.272 11.831 15.66 11.666 16.113 11.666C16.511 11.666 16.96 11.794 17.433 12.064L34.648 21.844L29.671 26.822ZM13.261 14.97C13.261 14.24 13.463 13.677 13.806 13.314L13.892 13.228L28.492 27.828V28.173L13.892 42.772L13.806 42.686C13.463 42.324 13.261 41.762 13.261 41.031V14.97ZM30.85 28V27.827L35.716 22.961L35.826 23.023L41.592 26.299C43.239 27.235 43.239 28.767 41.592 29.703L35.826 32.979L35.716 33.042L30.85 28.172V28ZM14.985 43.865C15.527 44.44 16.424 44.512 17.433 43.938L34.648 34.158L29.671 29.18L14.985 43.865Z" fill="#5A6472"/>
</svg>
