<svg width="38" height="38" viewBox="0 0 38 38" fill="none" xmlns="http://www.w3.org/2000/svg">
<g clip-path="url(#clip0_2001_124)">
<path d="M0 0H38V38H0V0Z" fill="white"/>
<path d="M15.2148 0H22.7852V38H15.2148V0Z" fill="#FF0000"/>
<path d="M0 15.2148H38V22.7852H0V15.2148Z" fill="#FF0000"/>
<g style="mix-blend-mode:multiply">
<path fill-rule="evenodd" clip-rule="evenodd" d="M8.46836 29.5316C8.55 28.1957 8.7875 27.0527 8.7875 27.0527C8.7875 27.0527 8.00078 27.127 7.60742 27.127C7.21406 27.127 6.42734 27.0527 6.42734 27.0527C6.42734 27.0527 6.66484 28.1883 6.74648 29.5316C5.41055 29.45 4.26758 29.2125 4.26758 29.2125C4.26758 29.2125 4.3418 29.8062 4.3418 30.3926C4.3418 30.9789 4.26758 31.5727 4.26758 31.5727C4.26758 31.5727 5.40313 31.3352 6.74648 31.2535C6.66484 32.5895 6.42734 33.7324 6.42734 33.7324C6.42734 33.7324 7.02109 33.6582 7.60742 33.6582C8.20117 33.6582 8.7875 33.7324 8.7875 33.7324C8.7875 33.7324 8.55 32.5969 8.46836 31.2535C9.8043 31.3352 10.9473 31.5727 10.9473 31.5727C10.9473 31.5727 10.873 30.7859 10.873 30.3926C10.873 29.9992 10.9473 29.2125 10.9473 29.2125C10.9473 29.2125 9.81172 29.45 8.46836 29.5316ZM31.2535 6.74648C31.3352 5.41055 31.5727 4.26758 31.5727 4.26758C31.5727 4.26758 30.7859 4.3418 30.3926 4.3418C29.9992 4.3418 29.2125 4.26758 29.2125 4.26758C29.2125 4.26758 29.45 5.41055 29.5316 6.74648C28.1957 6.66484 27.0527 6.42734 27.0527 6.42734C27.0527 6.42734 27.127 7.02109 27.127 7.60742C27.127 8.20117 27.0527 8.7875 27.0527 8.7875C27.0527 8.7875 28.1883 8.55 29.5316 8.46836C29.45 9.8043 29.2125 10.9473 29.2125 10.9473C29.2125 10.9473 29.8062 10.873 30.3926 10.873C30.9789 10.873 31.5727 10.9473 31.5727 10.9473C31.5727 10.9473 31.3352 9.81172 31.2535 8.46836C32.5895 8.55 33.7324 8.7875 33.7324 8.7875C33.7324 8.7875 33.6582 8.00078 33.6582 7.60742C33.6582 7.22148 33.7324 6.42734 33.7324 6.42734C33.7324 6.42734 32.5895 6.66484 31.2535 6.74648ZM8.46836 6.74648C8.55 5.41055 8.7875 4.26758 8.7875 4.26758C8.7875 4.26758 8.00078 4.3418 7.60742 4.3418C7.21406 4.3418 6.42734 4.26758 6.42734 4.26758C6.42734 4.26758 6.66484 5.41055 6.74648 6.74648C5.41055 6.66484 4.26758 6.42734 4.26758 6.42734C4.26758 6.42734 4.3418 7.02109 4.3418 7.60742C4.3418 8.20117 4.26758 8.7875 4.26758 8.7875C4.26758 8.7875 5.40313 8.55 6.74648 8.46836C6.66484 9.8043 6.42734 10.9473 6.42734 10.9473C6.42734 10.9473 7.02109 10.873 7.60742 10.873C8.20117 10.873 8.7875 10.9473 8.7875 10.9473C8.7875 10.9473 8.55 9.81172 8.46836 8.46836C9.8043 8.55 10.9473 8.7875 10.9473 8.7875C10.9473 8.7875 10.873 8.00078 10.873 7.60742C10.873 7.22148 10.9473 6.42734 10.9473 6.42734C10.9473 6.42734 9.81172 6.66484 8.46836 6.74648ZM31.2535 29.5316C31.3352 28.1957 31.5727 27.0527 31.5727 27.0527C31.5727 27.0527 30.7859 27.127 30.3926 27.127C29.9992 27.127 29.2125 27.0527 29.2125 27.0527C29.2125 27.0527 29.45 28.1883 29.5316 29.5316C28.1957 29.45 27.0527 29.2125 27.0527 29.2125C27.0527 29.2125 27.127 29.8062 27.127 30.3926C27.127 30.9789 27.0527 31.5727 27.0527 31.5727C27.0527 31.5727 28.1883 31.3352 29.5316 31.2535C29.45 32.5895 29.2125 33.7324 29.2125 33.7324C29.2125 33.7324 29.8062 33.6582 30.3926 33.6582C30.9789 33.6582 31.5727 33.7324 31.5727 33.7324C31.5727 33.7324 31.3352 32.5969 31.2535 31.2535C32.5895 31.3352 33.7324 31.5727 33.7324 31.5727C33.7324 31.5727 33.6582 30.7859 33.6582 30.3926C33.6582 29.9992 33.7324 29.2125 33.7324 29.2125C33.7324 29.2125 32.5895 29.45 31.2535 29.5316Z" fill="#FF0000"/>
</g>
</g>
<defs>
<clipPath id="clip0_2001_124">
<path d="M0 19C0 8.50659 8.50659 0 19 0C29.4934 0 38 8.50659 38 19C38 29.4934 29.4934 38 19 38C8.50659 38 0 29.4934 0 19Z" fill="white"/>
</clipPath>
</defs>
</svg>