<svg width="38" height="38" viewBox="0 0 38 38" fill="none" xmlns="http://www.w3.org/2000/svg">
<g clip-path="url(#clip0_2001_92)">
<path fill-rule="evenodd" clip-rule="evenodd" d="M0 0H38V38H0V0Z" fill="#6FDCFF"/>
<path fill-rule="evenodd" clip-rule="evenodd" d="M3.19131 36.9609C3.45107 37.2059 3.36201 37.6289 4.08193 37.5769C5.17295 37.5769 5.20264 36.909 5.20264 36.4414C5.20264 35.9738 3.56982 35.3281 3.4956 34.6379C3.42139 33.9477 3.87412 33.7621 4.25264 33.7621C4.62373 33.7621 4.89092 33.9848 4.89092 34.1703C4.89092 34.3559 4.70537 34.4152 4.44561 34.4152C4.18584 34.4152 4.55693 34.2816 4.32685 34.1703C4.09678 34.059 3.95576 34.3336 3.95576 34.5043C3.95576 34.6676 4.51982 34.7195 4.89092 34.6008C4.96514 34.9719 5.00967 34.9941 4.47529 35.625C4.85381 35.3801 4.89092 35.3281 5.30654 35.4617C4.89092 35.1055 5.20264 34.3781 5.21748 34.1926C5.23232 34.007 5.14326 33.7844 4.97256 33.673C4.66826 33.4059 4.00771 33.391 3.61435 33.5691C3.03545 33.8215 3.00576 34.5785 3.16162 34.8309L4.75732 36.4637C4.86865 36.6566 4.90576 37.191 4.23037 37.2207C3.51045 37.2727 3.26553 36.3004 3.13935 35.9738C2.96865 36.3301 2.78311 37.3098 2.06318 37.2504C1.38779 37.2281 1.2542 36.6937 1.36553 36.5008L3.00576 34.8309C3.1542 34.5785 3.13193 33.8215 2.56045 33.5691C2.15967 33.391 1.49912 33.4059 1.19482 33.6805C1.03154 33.7844 0.935059 34.007 0.949902 34.1926C0.964746 34.3781 1.27646 35.1055 0.86084 35.4543C1.27646 35.3207 1.30615 35.3801 1.68467 35.625C1.16514 34.9941 1.19482 34.9644 1.27646 34.5934C1.64756 34.7195 2.21904 34.6676 2.21904 34.5043C2.21904 34.3336 2.07061 34.059 1.84053 34.1703C1.61787 34.2816 1.98896 34.4152 1.7292 34.4152C1.46201 34.4152 1.27646 34.3633 1.27646 34.1703C1.27646 33.9773 1.53623 33.7621 1.91475 33.7621C2.29326 33.7621 2.746 33.9551 2.66436 34.6379C2.59014 35.3207 0.920215 36.0703 0.920215 36.5379C0.920215 37.0055 1.03896 37.5769 2.12998 37.5769C2.8499 37.6289 2.93154 37.2059 3.19131 36.9535V36.9609Z" fill="#FFE400"/>
<path fill-rule="evenodd" clip-rule="evenodd" d="M3.10232 27.1641C3.36208 26.9117 3.5699 26.1621 4.28982 26.2215C5.38083 26.2215 5.79646 26.8226 5.79646 27.2902C5.79646 27.7578 3.5699 31.5726 3.49568 32.2629C3.42146 32.9457 3.87419 33.1387 4.25271 33.1387C4.6238 33.1387 4.89099 32.916 4.89099 32.723C4.89099 32.5301 4.70544 32.4781 4.44568 32.4781C4.18591 32.4781 4.54958 32.6117 4.32693 32.723C4.10427 32.8344 3.95583 32.5598 3.95583 32.3965C3.95583 32.2258 4.51248 32.1738 4.89099 32.3C4.96521 31.9289 5.00232 31.8992 4.47537 31.2683C4.85388 31.5133 4.89099 31.5652 5.30662 31.4316C4.89099 31.7879 5.20271 32.5152 5.21755 32.7008C5.2324 32.8863 5.14333 33.109 4.96521 33.2203C4.66833 33.4949 4.00037 33.5023 3.61443 33.3242C3.03552 33.0719 3.00583 32.3148 3.16169 32.0625L5.30662 27.4238C5.41794 27.2309 5.12107 26.6074 4.43826 26.5777C3.72576 26.5184 3.47341 27.268 3.35466 27.5945L4.32693 27.5203C4.32693 27.5203 4.36404 27.6687 4.32693 27.7726C3.82224 27.8023 3.35466 27.8988 3.35466 27.8988L3.31755 28.3887H3.79998L3.75544 28.6113C3.75544 28.6113 3.35466 28.5816 3.31013 28.6113C3.27302 28.641 3.23591 29.1086 3.23591 29.1086C3.23591 29.1086 3.16169 29.1309 3.08748 29.1309C2.99841 29.1309 2.92419 29.1086 2.92419 29.1086C2.92419 29.1086 2.88708 28.641 2.84998 28.6113C2.81287 28.5816 2.40466 28.6113 2.40466 28.6113L2.36755 28.3887H2.84998L2.81287 27.8988C2.81287 27.8988 2.33787 27.8023 1.83318 27.7726C1.79607 27.6762 1.83318 27.5277 1.83318 27.5277L2.81287 27.6019C2.68669 27.268 2.44177 26.5184 1.72185 26.5777C1.04646 26.6 0.742163 27.2309 0.853491 27.4238L3.00583 32.0625C3.15427 32.3148 3.12458 33.0719 2.5531 33.3242C2.15974 33.5023 1.49919 33.4949 1.1949 33.2203C1.02419 33.109 0.935132 32.8863 0.949976 32.7008C0.964819 32.5152 1.26912 31.7879 0.853491 31.4391C1.26912 31.5726 1.30623 31.5133 1.68474 31.2683C1.16521 31.8992 1.1949 31.9289 1.26912 32.3C1.64763 32.1738 2.21169 32.2258 2.21169 32.3965C2.21169 32.5598 2.06326 32.8344 1.8406 32.723C1.61052 32.6117 1.98904 32.4781 1.72185 32.4781C1.46208 32.4781 1.27654 32.5301 1.27654 32.723C1.27654 32.916 1.5363 33.1387 1.91482 33.1387C2.29333 33.1387 2.73865 32.9457 2.66443 32.2555C2.59021 31.5726 0.363647 27.7578 0.363647 27.2828C0.363647 26.8226 0.779273 26.2215 1.87029 26.2215C2.59021 26.1621 2.84255 26.9117 3.10232 27.1641Z" fill="#FFE400"/>
<path fill-rule="evenodd" clip-rule="evenodd" d="M3.1023 25.2715C3.36206 25.5238 3.56987 26.2734 4.2898 26.214C5.38081 26.214 5.79644 25.6129 5.79644 25.1453C5.79644 24.6777 3.56987 20.8629 3.49565 20.1726C3.42144 19.4898 3.87417 19.2969 4.25269 19.2969C4.62378 19.2969 4.89097 19.5195 4.89097 19.7125C4.89097 19.9055 4.70542 19.9574 4.44565 19.9574C4.18589 19.9574 4.55698 19.8238 4.3269 19.7125C4.09683 19.6012 3.95581 19.8758 3.95581 20.039C3.95581 20.2098 4.51245 20.2617 4.89097 20.1355C4.96519 20.5066 5.0023 20.5363 4.47534 21.1672C4.85386 20.9223 4.89097 20.8703 5.30659 21.0039C4.89097 20.6476 5.20269 19.9203 5.21753 19.7348C5.23237 19.5492 5.14331 19.3265 4.96519 19.2152C4.66831 18.9406 4.00034 18.9332 3.6144 19.1113C3.0355 19.3637 3.00581 20.1207 3.16167 20.373L5.30659 25.0117C5.41792 25.2047 5.12105 25.8281 4.43823 25.8578C3.72573 25.9172 3.47339 25.1676 3.35464 24.841L4.3269 24.9152C4.3269 24.9152 4.36401 24.7668 4.3269 24.6629C3.82222 24.6258 3.35464 24.5367 3.35464 24.5367L3.31753 24.0469H3.78511L3.748 23.8242C3.748 23.8242 3.34722 23.8539 3.30269 23.8242C3.273 23.7945 3.22847 23.3269 3.22847 23.3269C3.22847 23.3269 3.15425 23.3047 3.08003 23.3047C2.99097 23.3047 2.91675 23.3269 2.91675 23.3269C2.91675 23.3269 2.87964 23.7945 2.84253 23.8242C2.80542 23.8539 2.39722 23.8242 2.39722 23.8242L2.36011 24.0469H2.84253L2.80542 24.5367C2.80542 24.5367 2.33042 24.6258 1.82573 24.6629C1.78862 24.7594 1.82573 24.9078 1.82573 24.9078L2.80542 24.8336C2.67925 25.1676 2.43433 25.9172 1.7144 25.8578C1.03901 25.8355 0.734717 25.2047 0.853467 25.0117L2.99839 20.373C3.14683 20.1207 3.11714 19.3637 2.54565 19.1113C2.1523 18.9332 1.49175 18.9406 1.18745 19.2152C1.01675 19.3265 0.927686 19.5492 0.942529 19.7348C0.957373 19.9203 1.26167 20.6476 0.846045 20.9965C1.26167 20.8629 1.29878 20.9223 1.67729 21.1672C1.15034 20.5363 1.18745 20.5066 1.26167 20.1355C1.64019 20.2617 2.20425 20.2098 2.20425 20.039C2.20425 19.8683 2.05581 19.6012 1.83315 19.7125C1.6105 19.8238 1.98159 19.9574 1.7144 19.9574C1.45464 19.9574 1.26909 19.9055 1.26909 19.7125C1.26909 19.5195 1.52886 19.3043 1.90737 19.3043C2.28589 19.3043 2.7312 19.4898 2.65698 20.1801C2.58276 20.8629 0.356201 24.6777 0.356201 25.1527C0.356201 25.6129 0.771826 26.214 1.86284 26.214C2.58276 26.2734 2.83511 25.5238 3.09487 25.2715H3.1023Z" fill="#FFE400"/>
<path fill-rule="evenodd" clip-rule="evenodd" d="M3.10232 12.7062C3.36208 12.4539 3.5699 11.7043 4.28982 11.7562C5.38083 11.7562 5.79646 12.3648 5.79646 12.8324C5.79646 13.2926 3.5699 17.1074 3.49568 17.7976C3.42146 18.4805 3.87419 18.6734 4.25271 18.6734C4.6238 18.6734 4.89099 18.4508 4.89099 18.2652C4.89099 18.0797 4.70544 18.0129 4.44568 18.0129C4.18591 18.0129 4.54958 18.1539 4.32693 18.2652C4.10427 18.3765 3.95583 18.1019 3.95583 17.9312C3.95583 17.768 4.51248 17.7086 4.89099 17.8348C4.96521 17.4637 5.00232 17.4414 4.47537 16.8105C4.85388 17.0555 4.89099 17.1074 5.30662 16.9738C4.89099 17.3301 5.20271 18.0574 5.21755 18.2355C5.2324 18.4137 5.14333 18.6437 4.96521 18.7551C4.66833 19.0297 4.00037 19.0445 3.61443 18.8664C3.03552 18.6066 3.00583 17.8496 3.16169 17.6047L5.30662 12.966C5.41794 12.773 5.12107 12.1422 4.43826 12.1125C3.72576 12.0605 3.47341 12.8101 3.35466 13.1367L4.32693 13.0625C4.32693 13.0625 4.36404 13.2109 4.32693 13.3148C3.82224 13.3445 3.35466 13.4336 3.35466 13.4336L3.31755 13.9308H3.79998L3.75544 14.1535C3.75544 14.1535 3.35466 14.1238 3.31013 14.1535C3.27302 14.1758 3.23591 14.6433 3.23591 14.6433C3.23591 14.6433 3.16169 14.673 3.08748 14.673C2.99841 14.673 2.92419 14.6433 2.92419 14.6433C2.92419 14.6433 2.88708 14.1758 2.84998 14.1535C2.81287 14.1238 2.40466 14.1535 2.40466 14.1535L2.36755 13.9308H2.84998L2.81287 13.4336C2.81287 13.4336 2.33787 13.3445 1.83318 13.3148C1.79607 13.2183 1.83318 13.0625 1.83318 13.0625L2.81287 13.1367C2.68669 12.8101 2.44177 12.0605 1.72185 12.1125C1.04646 12.1422 0.742163 12.773 0.853491 12.966L3.00583 17.6047C3.15427 17.8496 3.12458 18.6066 2.5531 18.8664C2.15974 19.0445 1.49919 19.0297 1.1949 18.7551C1.02419 18.6512 0.935132 18.4285 0.949976 18.2355C0.964819 18.0426 1.26912 17.3301 0.853491 16.9738C1.26912 17.1074 1.30623 17.0555 1.68474 16.8105C1.16521 17.4414 1.1949 17.4711 1.26912 17.8348C1.64763 17.716 2.21169 17.768 2.21169 17.9312C2.21169 18.0945 2.06326 18.3765 1.8406 18.2652C1.61052 18.1539 1.98904 18.0129 1.72185 18.0129C1.46208 18.0129 1.27654 18.0723 1.27654 18.2652C1.27654 18.4582 1.5363 18.6734 1.91482 18.6734C2.29333 18.6734 2.73865 18.4805 2.66443 17.7976C2.59021 17.1074 0.363647 13.2926 0.363647 12.825C0.363647 12.3648 0.779273 11.7562 1.87029 11.7562C2.59021 11.7043 2.84255 12.4539 3.10232 12.7062Z" fill="#FFE400"/>
<path fill-rule="evenodd" clip-rule="evenodd" d="M3.10232 10.8136C3.36208 11.066 3.5699 11.8082 4.28982 11.7562C5.38083 11.7562 5.79646 11.155 5.79646 10.6875C5.79646 10.2199 3.5699 6.40504 3.49568 5.71481C3.42146 5.03199 3.87419 4.83902 4.25271 4.83902C4.6238 4.83902 4.89099 5.06168 4.89099 5.24723C4.89099 5.43277 4.70544 5.49957 4.44568 5.49957C4.18591 5.49957 4.55701 5.35856 4.32693 5.24723C4.09685 5.1359 3.95583 5.41793 3.95583 5.58121C3.95583 5.74449 4.51248 5.80387 4.89099 5.6777C4.96521 6.04879 5.00232 6.07106 4.47537 6.70192C4.85388 6.45699 4.89099 6.40504 5.30662 6.53863C4.89099 6.18238 5.20271 5.45504 5.21755 5.27692C5.2324 5.09879 5.14333 4.86871 4.96521 4.75738C4.66833 4.48278 4.00037 4.46793 3.61443 4.64606C3.03552 4.90582 3.00583 5.66285 3.16169 5.90778L5.30662 10.5464C5.41794 10.7394 5.12107 11.3703 4.43826 11.4C3.72576 11.4519 3.47341 10.7023 3.35466 10.3757L4.32693 10.45C4.32693 10.45 4.36404 10.3015 4.32693 10.1976C4.00086 10.1764 3.67626 10.1367 3.35466 10.0789L3.31755 9.5816H3.78513L3.74802 9.35895C3.74802 9.35895 3.34724 9.38863 3.30271 9.35895C3.27302 9.33668 3.22849 8.8691 3.22849 8.8691C3.22849 8.8691 3.15427 8.83942 3.08005 8.83942C2.99099 8.83942 2.91677 8.8691 2.91677 8.8691C2.91677 8.8691 2.87966 9.33668 2.84255 9.36637C2.80544 9.38863 2.39724 9.36637 2.39724 9.36637L2.36013 9.58903H2.84255L2.80544 10.0789C2.80544 10.0789 2.33044 10.1679 1.82576 10.1976C1.80502 10.2805 1.80502 10.3671 1.82576 10.45L2.80544 10.3757C2.67927 10.7023 2.43435 11.4519 1.71443 11.4C1.03904 11.3703 0.734741 10.7394 0.853491 10.5464L2.99841 5.90778C3.14685 5.66285 3.11716 4.90582 2.54568 4.64606C2.15232 4.46793 1.49177 4.48278 1.18748 4.75738C1.01677 4.86871 0.92771 5.08395 0.942554 5.27692C0.957397 5.46988 1.26169 6.18238 0.846069 6.53863C1.26169 6.40504 1.2988 6.46442 1.67732 6.70192C1.15037 6.07106 1.18748 6.04879 1.26169 5.6777C1.64021 5.79645 2.20427 5.75192 2.20427 5.58121C2.20427 5.41051 2.05583 5.1359 1.83318 5.24723C1.61052 5.35856 1.98162 5.49957 1.71443 5.49957C1.45466 5.49957 1.26912 5.4402 1.26912 5.24723C1.26912 5.05426 1.52888 4.83902 1.9074 4.83902C2.28591 4.83902 2.73865 5.03199 2.66443 5.71481C2.59021 6.40504 0.363647 10.2199 0.363647 10.6875C0.363647 11.155 0.779273 11.7562 1.87029 11.7562C2.59021 11.8082 2.84255 11.066 3.10232 10.8136Z" fill="#FFE400"/>
<path fill-rule="evenodd" clip-rule="evenodd" d="M3.19131 1.01679C3.45107 0.764445 3.36201 0.34882 4.08193 0.393351C5.17295 0.393351 5.20264 1.06132 5.20264 1.5289C5.20264 1.99648 3.56982 2.6496 3.4956 3.33241C3.42139 4.02265 3.87412 4.21562 4.25264 4.21562C4.62373 4.21562 4.89092 3.99296 4.89092 3.79999C4.89092 3.60702 4.70537 3.56249 4.45303 3.56249C4.20068 3.56249 4.56435 3.70351 4.33428 3.80741C4.1042 3.91132 3.96318 3.64413 3.96318 3.48085C3.96318 3.31757 4.52725 3.25819 4.89834 3.38437C4.97256 3.01327 5.01709 2.98359 4.48271 2.35273C4.85381 2.59765 4.89834 2.6496 5.30654 2.52343C4.89092 2.87968 5.20264 3.60702 5.21748 3.78515C5.23232 3.96327 5.14326 4.19335 4.97256 4.30468C4.66826 4.57929 4.00771 4.59413 3.61435 4.41601C3.03545 4.15624 3.00576 3.39921 3.16162 3.15429L4.75732 1.52148C4.86865 1.32109 4.90576 0.78671 4.23037 0.757023C3.51045 0.70507 3.26553 1.68476 3.13935 2.0039C2.96865 1.64765 2.78311 0.66796 2.06318 0.719913C1.38779 0.749601 1.2542 1.28398 1.36553 1.47694L3.00576 3.14687C3.1542 3.39179 3.13193 4.14882 2.56045 4.40859C2.15967 4.58671 1.49912 4.57187 1.19482 4.29726C1.03154 4.18593 0.935059 3.97069 0.949902 3.77773C0.964746 3.58476 1.27646 2.87226 0.86084 2.51601C1.27646 2.6496 1.30615 2.59023 1.68467 2.3453C1.16514 2.97616 1.19482 3.01327 1.27646 3.37694C1.64756 3.25077 2.21904 3.30273 2.21904 3.47343C2.21904 3.63671 2.07061 3.91874 1.84053 3.79999C1.61787 3.69609 1.98896 3.55507 1.7292 3.55507C1.46201 3.55507 1.27646 3.61444 1.27646 3.79999C1.27646 3.98554 1.53623 4.21562 1.91475 4.21562C2.29326 4.21562 2.746 4.02265 2.66436 3.33241C2.59014 2.6496 0.920215 1.89999 0.920215 1.43241C0.920215 0.964835 1.03896 0.393351 2.12998 0.393351C2.8499 0.341398 2.93154 0.764445 3.19131 1.01679Z" fill="#FFE400"/>
<path d="M27.9136 16.7104C27.9136 13.4045 25.0859 10.7246 21.5976 10.7246C18.1094 10.7246 15.2816 13.4045 15.2816 16.7104C15.2816 20.0162 18.1094 22.6961 21.5976 22.6961C25.0859 22.6961 27.9136 20.0162 27.9136 16.7104Z" fill="#FFE400"/>
<path fill-rule="evenodd" clip-rule="evenodd" d="M21.3007 7.1547C21.2413 7.1547 20.9593 9.14376 20.8554 9.58907C20.7515 10.591 22.1913 10.5539 21.9538 9.55197L21.3007 7.14728V7.1547ZM21.8054 26.4367C21.8573 26.4367 22.2878 24.4699 22.4288 24.032C22.5995 23.0449 21.1597 22.993 21.3156 24.0024L21.8054 26.4367ZM11.7413 16.6695C11.7413 16.7215 13.812 17.1371 14.2722 17.2707C15.3113 17.4414 15.3855 16.0832 14.3167 16.2317L11.7413 16.677V16.6695ZM31.9066 16.907C31.9066 16.8551 29.8136 16.5137 29.346 16.3949C28.2995 16.2688 28.2921 17.627 29.346 17.4414L31.9066 16.907ZM13.864 10.3609C13.8269 10.3981 15.1925 11.9418 15.4671 12.3203C16.1796 13.0625 17.1222 12.0234 16.1796 11.5188L13.864 10.3684V10.3609ZM29.5316 23.0524C29.5687 23.0152 28.0695 21.5902 27.7577 21.2414C26.9784 20.5586 26.1398 21.6645 27.1195 22.0949L29.5316 23.0598V23.0524ZM16.9886 8.20861C16.9441 8.23087 17.5823 10.1457 17.6863 10.5985C18.0425 11.541 19.3339 10.925 18.6659 10.116L16.996 8.20861H16.9886ZM26.1249 25.457C26.1769 25.4348 25.6796 23.4828 25.6128 23.0301C25.3234 22.0652 23.9949 22.5848 24.596 23.4457L26.1323 25.4496L26.1249 25.457ZM28.3738 9.54454C28.3292 9.50743 26.6816 10.7766 26.2808 11.0289C25.4866 11.6969 26.5628 12.6024 27.112 11.7192L28.3738 9.54454ZM14.7917 23.9207C14.8288 23.9578 16.573 22.8074 16.9886 22.5774C17.8273 21.9688 16.8253 20.9891 16.2093 21.8352L14.7991 23.9207H14.7917ZM12.1941 13.2258C12.1718 13.2703 13.9753 14.3168 14.3687 14.5914C15.2964 15.0738 15.8382 13.8121 14.7769 13.6117L12.1941 13.2258ZM31.0234 20.5289C31.0456 20.4844 29.3163 19.3192 28.9452 19.0223C28.0546 18.4731 27.4238 19.6977 28.4702 19.9649L31.0234 20.5289ZM25.0413 7.6965C24.9894 7.68165 23.9577 9.43322 23.6831 9.81173C23.6836 9.93261 23.722 10.0503 23.7927 10.1483C23.8635 10.2463 23.9632 10.3196 24.0778 10.3581C24.1924 10.3966 24.3161 10.3982 24.4317 10.3628C24.5473 10.3274 24.6488 10.2566 24.7222 10.1606L25.0413 7.6965ZM18.0722 25.8281C18.1241 25.8504 19.282 24.1656 19.5788 23.802C20.1206 22.941 18.807 22.3918 18.562 23.3863L18.0722 25.8281ZM12.3202 20.6848C12.3425 20.7293 14.3984 20.2395 14.8808 20.1652C15.8902 19.8832 15.3261 18.6363 14.4355 19.2152L12.3202 20.6848ZM31.0308 13.0625C31.0159 13.018 28.9304 13.3668 28.448 13.4113C27.4089 13.6266 27.8913 14.9106 28.8191 14.391L31.0308 13.0625Z" fill="#FFE400"/>
<path fill-rule="evenodd" clip-rule="evenodd" d="M23.3491 7.28086C23.2972 7.27344 22.5995 9.16602 22.3917 9.58164C22.0874 10.5465 23.505 10.784 23.4827 9.75977L23.3566 7.27344L23.3491 7.28086ZM19.7495 26.2734C19.8015 26.2883 20.6402 24.4402 20.8777 24.032C21.2488 23.0969 19.8534 22.7703 19.8015 23.7871L19.7421 26.2734H19.7495ZM19.0296 7.46641C18.9777 7.48125 19.1706 9.48516 19.1706 9.94531C19.3116 10.9324 20.6995 10.591 20.2394 9.6707L19.0296 7.46641ZM24.0765 26.1621C24.1284 26.1547 24.0765 24.1434 24.1136 23.6832C24.0468 22.6812 22.6292 22.9336 23.03 23.8836L24.0691 26.1621H24.0765ZM15.4523 9.12891C15.4077 9.15859 16.3948 10.9324 16.5804 11.3555C17.1148 12.2238 18.2652 11.4074 17.4562 10.7172L15.4523 9.12891ZM27.6835 24.559C27.7281 24.5293 26.8671 22.6887 26.7187 22.2582C26.2511 21.3602 25.0488 22.1023 25.7984 22.8371L27.6835 24.559ZM12.8398 11.6227C12.8101 11.6672 14.4058 12.9883 14.7398 13.3297C15.5636 13.9531 16.3281 12.7953 15.3187 12.4316L12.8398 11.6227ZM30.2218 21.991C30.2515 21.9465 28.7597 20.5215 28.448 20.1652C27.6761 19.4898 26.83 20.5957 27.8097 21.0262L30.2218 21.991ZM11.6968 14.7324C11.682 14.7844 13.6488 15.534 14.0792 15.7492C15.0738 16.0832 15.3929 14.7547 14.3093 14.725L11.6968 14.7324ZM31.5429 19.0223C31.5652 18.9777 29.6577 18.102 29.2421 17.857C28.2773 17.4562 27.8542 18.7625 28.9304 18.8664L31.5429 19.0223ZM11.63 18.5547C11.6374 18.5992 13.7601 18.5695 14.2425 18.6066C15.2964 18.5547 15.0441 17.2113 14.0347 17.575L11.63 18.5547ZM31.6839 15.2148C31.6839 15.1629 29.5613 15.0516 29.0863 14.9848C28.0249 14.9699 28.1808 16.3281 29.2124 16.0238L31.6839 15.2074V15.2148ZM13.4484 22.518C13.4781 22.5625 15.3781 21.657 15.8234 21.4863C16.7437 21.0039 15.8976 19.898 15.1628 20.6477L13.4484 22.518ZM29.9472 11.2145C29.9175 11.1699 27.9656 11.9492 27.498 12.0902C26.5406 12.5133 27.305 13.6711 28.0917 12.9734L29.9472 11.2145ZM16.5359 25.1453C16.5804 25.1676 17.9386 23.6238 18.28 23.2973C18.9257 22.5031 17.6863 21.8129 17.3226 22.7777L16.5359 25.1453ZM26.9042 8.53516C26.8671 8.50547 25.3976 9.95273 25.0339 10.257C24.3363 11.0066 25.5238 11.7785 25.9542 10.8434L26.8968 8.53516H26.9042Z" fill="#FFE400"/>
<path fill-rule="evenodd" clip-rule="evenodd" d="M11.9405 20.6917C12.0538 21.0745 12.07 23.2179 14.3539 25.2849C16.6215 27.3365 20.5089 27.7958 20.5089 27.7958C20.5089 27.7958 20.5251 28.0867 20.2498 28.102C19.9744 28.1326 18.6462 27.8724 17.9821 27.6733C17.3342 27.4896 16.7511 27.1528 16.6863 27.1681C16.6053 27.1987 16.4758 27.413 16.2814 27.3824C16.087 27.3518 15.1476 26.4332 14.7264 26.1882C13.8841 25.5 13.1384 24.7128 12.5074 23.8457C12.0538 23.1567 11.9405 22.6974 11.7947 22.6974C11.6489 22.6974 11.1144 23.0342 11.1144 23.0342C11.1144 23.0342 10.6285 22.3452 10.2073 21.2429C9.76999 20.1405 9.81858 19.4975 9.91577 19.4515C10.0292 19.4056 10.0291 20.263 10.3531 21.0438C10.677 21.84 11.1306 22.085 11.1306 22.085C11.1306 22.085 10.839 21.6716 10.6123 20.6458C10.3855 19.62 10.2883 18.6248 10.4503 18.3186C10.6123 18.0123 10.758 17.9205 10.7742 17.9358C10.8066 17.9664 10.4989 18.4104 10.7094 19.5893C10.92 20.7683 11.4869 21.7634 11.6165 21.7175C11.7461 21.6716 11.5355 21.4266 11.4545 20.7376C11.3735 20.0487 11.5355 19.62 11.7137 19.5587C11.7947 19.4975 11.9243 20.3242 11.9405 20.6917ZM10.3531 22.6515C9.91576 22.2687 9.23547 20.9367 9.08969 20.9979C8.92772 21.0745 10.1911 22.9883 10.2235 23.1414C10.2559 23.3251 10.5313 23.8457 10.3207 23.7691C10.1101 23.6926 8.60377 22.1921 8.78194 22.483C8.96012 22.7739 10.0939 24.0907 10.0291 24.1672C9.96436 24.2438 9.08969 23.4323 9.0573 23.5395C9.0411 23.6313 9.91577 24.4275 9.89957 24.5193C9.88337 24.6112 9.33266 24.0141 9.33266 24.1366C9.33266 24.2591 9.89957 24.8562 9.89957 24.948C9.89957 25.0399 9.41364 24.5193 9.57562 24.7949C9.7214 25.1012 10.1425 25.3614 10.1263 25.4533C10.1101 25.5452 9.76999 25.3308 9.76999 25.3767C9.76999 25.4227 10.4017 25.637 10.5475 25.8054C10.7094 25.9739 11.7461 27.1068 12.5236 27.6733C13.301 28.2398 15.5363 29.235 15.6983 29.235C15.844 29.235 16.0708 28.9288 16.0222 28.8063C15.9736 28.6838 13.787 27.9795 13.1877 27.459C12.5722 26.9384 11.082 25.683 10.9524 25.6217C10.839 25.5452 10.4989 25.5758 10.4989 25.4992C10.4989 25.4227 10.9362 25.5452 10.9038 25.4992C10.8876 25.4533 10.3045 25.2083 10.3207 25.1624C10.3531 25.1165 10.7256 25.2543 10.7256 25.2083C10.7256 25.1624 10.0453 24.8102 10.0777 24.7337C10.0939 24.6571 10.5799 24.948 10.5799 24.8868C10.5799 24.8562 9.93196 24.4275 9.94816 24.3509C9.96436 24.2744 10.4503 24.6878 10.4341 24.5959C10.4179 24.504 10.0453 23.9835 10.0453 23.9222C10.0453 23.8457 10.6285 24.4428 10.6932 24.3203C10.7256 24.2131 10.4827 23.2179 10.4989 23.2026C10.5151 23.1873 10.9362 23.417 11.001 23.2792C11.082 23.1261 10.7094 22.927 10.3531 22.6515ZM17.8201 30.1843C17.5124 30.2302 17.3666 30.123 17.5448 29.8781C17.7878 29.8781 18.4357 29.679 18.6624 29.5872C18.8892 29.4953 19.1321 29.3728 19.3265 29.2044C19.5209 29.0053 19.6505 29.3116 19.5371 29.48C19.4561 29.5871 19.0836 29.7862 18.8082 29.8934C18.4033 30.0158 18.0469 30.1996 17.8201 30.1843ZM19.8448 29.4034C19.6343 29.1891 19.8124 29.036 20.1202 28.8676C20.5737 28.6379 20.4441 28.3164 21.0273 28.0561C21.2864 27.903 24.9147 26.525 26.0971 25.7901C27.2795 25.0552 30.6 22.6821 31.4908 21.0438C32.3655 19.4209 31.9444 19.2984 32.0739 19.2372C32.1873 19.1606 32.3169 19.4669 32.3007 19.8343C32.2683 20.1865 31.9768 21.2582 32.0739 21.3654C32.1711 21.4725 33.4021 20.5233 33.9205 19.375C34.4388 18.2267 34.8275 17.0325 35.0705 17.0325C35.3296 17.0325 34.6494 18.9922 34.212 19.7578C33.7909 20.5233 33.2888 20.906 33.4021 21.0745C33.5317 21.2276 34.7951 20.2324 35.2325 19.4975C35.6536 18.7473 36.0585 18.0889 36.1395 18.2267C36.0106 19.1236 35.6366 19.9732 35.0543 20.6917C34.374 21.4266 33.5641 21.9625 33.6937 22.0697C33.8071 22.1921 34.7303 22.3146 35.686 21.7022C36.6578 21.0745 36.755 20.1711 36.8684 20.2171C36.998 20.263 36.755 21.5032 35.8318 22.2687C34.9085 23.0342 33.6937 23.1108 33.7261 23.2792C33.7909 23.4323 36.3663 22.5749 36.3177 22.7739C36.2691 22.9577 32.981 24.1825 32.9486 24.305C32.9486 24.3969 33.5155 24.4275 34.4064 24.2284C35.281 24.0447 36.1233 23.3864 36.2367 23.5395C36.2691 23.7538 35.605 24.2744 34.6008 24.5193C33.5803 24.7643 33.0782 25.0858 33.0458 25.1624C33.0296 25.2389 34.8599 24.948 34.8599 25.0399C34.8599 25.1318 32.4627 25.5758 32.4465 25.6983C32.4141 25.8054 34.7141 25.2543 34.6817 25.3921C34.617 25.4992 31.5556 26.3566 31.588 26.4026C31.6042 26.4638 34.1472 25.882 34.0986 25.9739C34.0338 26.081 29.8225 27.1987 29.7901 27.2753C29.7577 27.3365 33.5155 26.4791 33.4831 26.5557C33.4507 26.6322 31.5394 27.0762 31.5394 27.1221C31.5394 27.1681 33.0782 26.8925 33.0458 26.969C33.0296 27.0303 29.1584 27.9642 29.0774 28.102C28.9964 28.2551 31.0859 27.7193 31.0535 27.9949C31.0211 28.2704 26.5668 29.679 26.5506 29.4187C26.5182 29.1585 29.2556 28.5001 29.2394 28.4235C29.207 28.347 27.6682 28.5767 27.6358 28.4389C27.6196 28.2858 28.6563 27.9795 28.5753 27.9183C28.4943 27.8417 27.7168 28.1326 27.7816 27.9642C27.8626 27.7958 29.3366 27.1528 29.3042 27.1068C29.288 27.0609 28.7697 27.2599 28.8182 27.1068C28.883 26.9384 32.0092 26.081 31.9606 25.9739C31.912 25.882 30.519 26.1882 30.3894 26.2188C30.3408 26.127 32.3331 25.4227 32.3007 25.3002C32.2359 25.193 31.2317 25.7136 31.1669 25.5758C31.1345 25.4227 32.9324 24.7643 32.819 24.6571C32.7056 24.55 31.8958 24.9327 31.7824 24.8256C31.669 24.7184 33.4831 23.5395 33.2078 23.5088C32.9324 23.4935 32.5923 23.8763 32.5599 23.6313C32.5923 23.3251 33.9691 22.8199 33.6613 22.5749C33.1754 22.4371 31.5394 22.6821 30.8591 23.0648C30.1788 23.4476 27.9112 25.5758 27.3605 25.9126C26.8098 26.2341 24.9309 26.9844 24.5745 27.1375C24.0238 27.3212 23.9266 27.5968 23.3597 27.8724C22.3393 28.1326 22.3554 28.4235 21.8695 28.592C21.6913 28.6379 19.861 29.4647 19.8448 29.4034ZM17.2856 30.4752C16.9779 30.6283 16.7025 30.9957 16.8807 31.1488C16.9779 31.3326 17.2856 30.7354 17.5286 30.7661L18.8244 30.8273C19.5209 30.8732 19.861 30.6895 20.2498 30.7201C20.6385 30.7508 21.497 30.5211 21.9019 30.5211C22.3069 30.5211 22.3878 30.567 22.4202 30.3986C22.4688 30.2455 21.1568 30.3527 20.5737 30.3374C19.9906 30.3067 19.2617 30.4445 18.8244 30.4445C18.4195 30.4292 17.723 30.3067 17.2856 30.4752Z" fill="#FFE400"/>
<path d="M19.2293 30.2914C19.2293 30.1646 19.106 30.0618 18.9539 30.0618C18.8019 30.0618 18.6786 30.1646 18.6786 30.2914C18.6786 30.4183 18.8019 30.5211 18.9539 30.5211C19.106 30.5211 19.2293 30.4183 19.2293 30.2914Z" fill="#FFE400"/>
<path fill-rule="evenodd" clip-rule="evenodd" d="M25.6922 29.8474C25.9675 29.8015 26.7126 30.0464 27.2309 30.1536C28.1704 30.5058 29.9197 30.3373 29.9197 30.5058C29.9197 30.6742 29.8063 30.8732 29.4014 30.9038C28.9964 30.9345 27.976 30.7507 28.0084 30.7507C28.0408 30.7507 28.8183 31.1029 28.5915 31.1947C28.3647 31.2866 27.7006 30.9957 27.5873 31.0723C27.4739 31.1488 28.2028 31.2866 28.0732 31.3325C27.976 31.3785 27.4739 31.2713 27.3119 31.2866C27.1499 31.3172 27.4415 31.4856 27.2471 31.5469C27.0527 31.6234 26.7288 31.455 26.5992 31.5009C26.4534 31.5469 26.8908 31.8072 26.6964 31.8378C26.502 31.8684 26.0485 31.7153 25.7893 31.6847C25.5302 31.6847 26.0323 31.9296 25.8703 31.9603C25.7084 31.9756 25.2548 31.7612 25.1414 31.7612C25.0281 31.7612 25.1414 32.0674 24.9795 32.0674C24.8175 32.0674 24.6231 31.8072 24.5259 31.8072C24.4287 31.8072 24.5259 32.1134 24.364 32.1134C24.202 32.1134 24.1372 31.7918 24.0076 31.8072C23.8456 31.8378 24.0076 32.2205 23.7808 32.1899C23.5703 32.1746 23.5379 31.7918 23.3597 31.8072C23.1977 31.8378 23.3921 32.1899 23.2301 32.1899C23.0682 32.1899 23.0358 31.8378 22.8738 31.8072C22.7118 31.7918 22.7766 32.144 22.6794 32.144C22.5822 32.144 22.485 31.8072 22.4203 31.8072C22.3717 31.8072 22.4203 32.144 22.2259 32.1134C22.0315 32.0828 22.0315 31.7459 21.9829 31.7612C21.9181 31.7919 21.9181 32.0368 21.7886 32.0368C21.659 32.0368 21.6428 31.7919 21.5942 31.8225C21.5294 31.8378 21.335 32.144 21.2054 32.0981C21.0597 32.0521 21.2378 31.8072 21.1731 31.8072C21.1083 31.8072 20.9463 31.9756 20.8491 31.9603C20.7519 31.945 20.8491 31.7459 20.8167 31.7459C20.7843 31.7459 20.5413 31.8684 20.428 31.8684C20.3146 31.8684 20.0068 32.0215 19.9258 31.8837C19.8449 31.7306 20.1364 31.7306 20.2012 31.5928C20.2498 31.455 20.0392 31.0416 20.266 30.9038C20.4766 30.7507 21.173 31.1029 22.2097 30.8579C24.0886 30.3833 25.5464 29.8321 25.6922 29.8474Z" fill="#FFE400"/>
</g>
<defs>
<clipPath id="clip0_2001_92">
<path d="M0 19C0 8.50659 8.50659 0 19 0C29.4934 0 38 8.50659 38 19C38 29.4934 29.4934 38 19 38C8.50659 38 0 29.4934 0 19Z" fill="white"/>
</clipPath>
</defs>
</svg>