<svg width="38" height="38" viewBox="0 0 38 38" fill="none" xmlns="http://www.w3.org/2000/svg">
<g clip-path="url(#clip0_7_993)">
<mask id="mask0_7_993" style="mask-type:luminance" maskUnits="userSpaceOnUse" x="0" y="0" width="38" height="38">
<path d="M0 0H37.9905V37.9905H0V0Z" fill="white"/>
</mask>
<g mask="url(#mask0_7_993)">
<path fill-rule="evenodd" clip-rule="evenodd" d="M0 0H75.9887V25.2376H0V0Z" fill="#B20000"/>
<path fill-rule="evenodd" clip-rule="evenodd" d="M0 25.2377H75.9887V37.9982H0V25.2377Z" fill="#429F00"/>
<path fill-rule="evenodd" clip-rule="evenodd" d="M0 0H8.40999V37.9905H0V0Z" fill="white"/>
<path fill-rule="evenodd" clip-rule="evenodd" d="M0.398287 0.643387H0.804234V1.28677H0.398287V0.643387ZM1.60081 0.643387H2.80333V1.28677H1.60847L1.60081 0.643387ZM1.9991 0H2.40504V0.643387H1.99144L1.9991 0ZM4.00585 0H4.40414V0.643387H4.00585V0ZM5.61432 0.643387H6.80918V1.28677H5.60666L5.61432 0.643387ZM6.00495 0H6.40324V0.643387H6.00495V0ZM1.20252 1.28677H2.00676V1.93016H1.20252V1.28677ZM2.40504 1.28677H3.20928V1.93016H2.40504V1.28677ZM5.20837 1.28677H6.01261V1.93016H5.20837V1.28677ZM6.4109 1.28677H7.19981V1.93016H6.41856L6.4109 1.28677ZM0.804234 1.93016H1.60081V2.57355H0.804234V1.93016ZM2.80333 1.93016H3.60757V2.57355H2.80333V1.93016ZM4.81009 1.93016H5.60666V2.57355H4.81009V1.93016ZM6.80918 1.93016H7.61342V2.57355H6.80918V1.93016ZM7.61342 0.643387H8.01171V1.28677H7.61342V0.643387ZM0.398287 2.57355H1.20252V3.21694H0.398287V2.57355ZM3.20162 2.57355H4.00585V3.21694H3.20162V2.57355ZM7.21513 2.57355H8.01171V3.21694H7.21513V2.57355ZM0.804234 4.51903H1.60081V5.16242H0.804234V4.51903ZM1.20252 5.16242H2.00676V5.80581H1.20252V5.16242ZM2.81099 4.51903H3.59991V5.16242H2.80333L2.81099 4.51903ZM2.40504 5.16242H3.20162V5.80581H2.40504V5.16242ZM1.60081 5.80581H2.80333V6.43387H1.60847L1.60081 5.80581ZM1.9991 6.43387H2.40504V7.08492H1.99144L1.9991 6.43387ZM4.81009 4.50371H5.60666V5.15476H4.81009V4.50371ZM5.20837 5.15476H6.01261V5.79815H5.20837V5.15476ZM6.81684 4.51137H7.61342V5.15476H6.80918L6.81684 4.51137ZM6.4109 5.15476H7.19981V5.79815H6.41856L6.4109 5.15476ZM5.60666 5.79815H6.81684V6.43387H5.60666V5.79815ZM6.01261 6.43387H6.4109V7.08492H6.01261V6.43387ZM4.00585 5.79815H4.40414V6.43387H4.00585V5.79815ZM0 5.79815H0.398287V6.43387H0V5.79815ZM8.01171 5.79815H8.40999V6.43387H8.01171V5.79815ZM1.9991 9.01508H2.40504V9.65847H1.99144L1.9991 9.01508ZM1.60081 9.65847H2.80333V10.3019H1.60847L1.60081 9.65847ZM1.20252 10.3019H3.20928V10.9452H1.20252V10.3019ZM6.01261 9.01508H6.4109V9.65847H6.01261V9.01508Z" fill="#B20000"/>
<path fill-rule="evenodd" clip-rule="evenodd" d="M5.60666 9.6585H6.81684V10.3019H5.60666V9.6585ZM5.20837 10.3019H7.20747V10.9453H5.20837V10.3019ZM5.60666 13.5188H7.61342V14.1699H5.60666V13.5188ZM4.81009 10.9529H7.61342V11.5963H4.81009V10.9529ZM0.804234 10.9529H3.59991V11.5963H0.804234V10.9529ZM1.20252 14.1699H2.40504V14.8209H1.20252V14.1699ZM0.804234 13.5341H2.80333V14.1775H0.804234V13.5341ZM6.4109 12.2397H8.40999V12.8908H6.41856L6.4109 12.2397ZM6.01261 14.1699H7.21513V14.8133H6.01261V14.1699ZM1.60081 14.8133H2.00676V15.4566H1.60081V14.8133ZM6.4109 14.8133H6.80918V15.4566H6.4109V14.8133ZM0 12.2321H2.00676V12.8831H0V12.2321ZM3.59991 13.5265H4.81009V14.1699H3.59991V13.5265ZM4.00585 14.1699H4.40414V14.8133H4.00585V14.1699ZM2.80333 12.2321H5.60666V12.8831H2.80333V12.2321ZM4.4118 2.58124H5.20837V3.21697H4.40414L4.4118 2.58124ZM3.59991 3.21697H4.80243V3.86035H3.59991V3.21697ZM3.19396 3.86035H3.99819V4.50374H3.20162L3.19396 3.86035ZM4.39648 3.86035H5.20837V4.50374H4.40414L4.39648 3.86035ZM0 3.21697H0.804234V3.86035H0V3.21697ZM0.398287 3.86035H1.20252V4.50374H0.398287V3.86035ZM7.61342 3.21697H8.40999V3.86035H7.61342V3.21697ZM7.19981 3.86035H8.00405V4.50374H7.21513L7.19981 3.86035ZM0 9.6585H0.398287V10.3019H0V9.6585ZM8.01171 9.6585H8.40999V10.3019H8.01171V9.6585ZM3.60757 14.8133H4.81009V15.4566H3.59991L3.60757 14.8133ZM3.20162 15.4566H4.00585V16.1H3.20162V15.4566ZM4.40414 15.4566H5.20837V16.1H4.40414V15.4566ZM2.80333 16.1H3.60757V16.7434H2.80333V16.1ZM4.81009 16.1H5.60666V16.7434H4.81009V16.1ZM2.40504 16.7434H3.20928V17.3868H2.40504V16.7434ZM5.20837 16.7434H6.01261V17.3868H5.20837V16.7434ZM1.9991 17.3868H2.80333V18.0302H1.9991V17.3868ZM5.60666 17.3868H6.4109V18.0302H5.60666V17.3868ZM1.20252 18.0302H2.40504V18.6736H1.20252V18.0302ZM6.01261 18.0302H7.21513V18.6736H6.01261V18.0302ZM6.80918 17.3868H7.61342V18.0302H6.80918V17.3868ZM7.21513 16.7434H8.01171V17.3868H7.21513V16.7434ZM7.61342 16.1H8.40999V16.7434H7.61342V16.1ZM0.796575 17.3868H1.60847V18.0302H0.804234L0.796575 17.3868ZM0.398287 16.7434H1.20252V17.3868H0.398287V16.7434Z" fill="#B20000"/>
<path fill-rule="evenodd" clip-rule="evenodd" d="M0 16.1H0.804234V16.7434H0V16.1ZM1.60847 18.6736H2.00676V19.317H1.60081L1.60847 18.6736ZM6.4109 18.6736H6.80918V19.317H6.4109V18.6736ZM4.00585 16.7434H4.40414V17.3868H4.00585V16.7434ZM2.80333 18.6736H3.20162V19.317H2.80333V18.6736ZM5.20837 18.6736H5.60666V19.317H5.20837V18.6736ZM4.00585 18.6736H4.40414V19.317H4.00585V18.6736ZM0 18.6736H0.398287V19.317H0V18.6736ZM8.01171 18.6736H8.40999V19.317H8.01171V18.6736ZM4.00585 9.65848H4.40414V10.3019H4.00585V9.65848ZM2.00676 3.22461H2.40504V3.86034H2.00676V3.22461ZM6.01261 3.22461H6.4109V3.86034H6.01261V3.22461ZM3.59991 7.72066H4.80243V8.36405H3.59991V7.72066ZM2.80333 8.37171H4.00585V9.0151H2.80333V8.37171Z" fill="#B20000"/>
<path fill-rule="evenodd" clip-rule="evenodd" d="M3.2016 9.01508H3.60755V9.65847H3.2016V9.01508ZM2.40503 7.7283H3.20926V8.37169H2.40503V7.7283ZM2.80332 7.08492H4.00584V7.7283H2.80332V7.08492ZM3.2016 6.44153H3.60755V7.08492H3.2016V6.44153ZM4.40413 7.08492H5.60665V7.7283H4.40413V7.08492ZM4.81007 6.44153H5.20836V7.08492H4.81007V6.44153ZM5.20836 7.7283H6.01259V8.37169H5.20836V7.7283ZM4.40413 8.37169H5.60665V9.01508H4.40413V8.37169ZM4.81007 9.01508H5.20836V9.65847H4.81007V9.01508ZM6.41088 7.7283H7.21512V8.37169H6.41088V7.7283ZM6.80917 7.08492H8.01169V7.7283H6.81683L6.80917 7.08492ZM7.6134 7.7283H8.40998V8.37169H7.6134V7.7283Z" fill="#B20000"/>
<path fill-rule="evenodd" clip-rule="evenodd" d="M6.81684 8.37169H8.01171V9.01508H6.81684V8.37169ZM7.21513 9.01508H7.61342V9.65847H7.21513V9.01508ZM7.21513 6.44153H7.61342V7.08492H7.21513V6.44153ZM0 7.7283H0.804234V8.37169H0V7.7283ZM0.398287 7.08492H1.60847V7.7283H0.398287V7.08492ZM1.20252 7.7283H2.00676V8.37169H1.20252V7.7283Z" fill="#B20000"/>
<path fill-rule="evenodd" clip-rule="evenodd" d="M0.398287 8.37169H1.60847V9.01508H0.398287V8.37169ZM0.804234 9.01508H1.20252V9.65847H0.804234V9.01508ZM0.804234 6.44153H1.20252V7.08492H0.804234V6.44153ZM0.398287 11.5886H2.00676V12.232H0.398287V11.5886ZM2.40504 11.5886H4.01351V12.232H2.40504V11.5886ZM4.40414 11.5886H6.01261V12.232H4.40414V11.5886ZM6.4109 11.5886H8.01937V12.232H6.4109V11.5886ZM3.20162 12.8754H5.20837V13.5265H3.20162V12.8754ZM0.398287 12.8754H2.40504V13.5265H0.398287V12.8754ZM6.01261 12.8754H8.01171V13.5265H6.01261V12.8754ZM8.01171 15.4566H8.40999V16.1H8.01171V15.4566ZM0 15.4566H0.398287V16.1H0V15.4566ZM0.398287 37.3548H0.804234V36.7037H0.398287V37.3548ZM1.60081 37.3548H2.80333V36.7037H1.60847L1.60081 37.3548ZM1.9991 37.9905H2.40504V37.3548H1.99144L1.9991 37.9905ZM4.00585 37.9905H4.40414V37.3548H4.00585V37.9905ZM5.61432 37.3548H6.80918V36.7114H5.60666L5.61432 37.3548ZM6.01261 37.9905H6.4109V37.3548H6.01261V37.9905ZM1.20252 36.7037H2.00676V36.0603H1.20252V36.7037ZM2.40504 36.7037H3.20928V36.0603H2.40504V36.7037ZM5.20837 36.7037H6.01261V36.0603H5.20837V36.7037ZM6.4109 36.7037H7.19981V36.0603H6.41856L6.4109 36.7037ZM2.81099 36.0603H3.59991V35.4169H2.80333L2.81099 36.0603ZM4.80243 36.0603H5.60666V35.4169H4.81009L4.80243 36.0603ZM6.80918 36.0603H7.61342V35.4169H6.80918V36.0603ZM7.61342 37.3548H8.01171V36.7037H7.61342V37.3548ZM0.398287 35.4169H1.20252V34.7736H0.398287V35.4169ZM3.20162 35.4169H4.00585V34.7736H3.20162V35.4169ZM7.21513 35.4169H8.01171V34.7736H7.21513V35.4169ZM0.804234 33.4868H1.60081V32.8434H0.804234V33.4868ZM1.20252 32.8434H2.00676V32.2H1.20252V32.8434ZM2.81099 33.4868H3.59991V32.8434H2.80333L2.81099 33.4868ZM2.40504 32.8434H3.20162V32.2H2.40504V32.8434ZM1.60081 32.2H2.80333V31.5566H1.60847L1.60081 32.2ZM1.9991 31.5566H2.40504V30.9132H1.99144L1.9991 31.5566ZM4.81009 33.4868H5.60666V32.8434H4.81009V33.4868ZM5.20837 32.8434H6.01261V32.2H5.20837V32.8434ZM6.81684 33.4868H7.61342V32.8434H6.80918L6.81684 33.4868ZM6.4109 32.8434H7.19981V32.2H6.41856L6.4109 32.8434ZM5.60666 32.2H6.81684V31.5566H5.60666V32.2ZM6.01261 31.5566H6.4109V30.9132H6.01261V31.5566ZM4.00585 32.2H4.40414V31.5566H4.00585V32.2ZM0 32.2H0.398287V31.5566H0V32.2ZM8.01171 32.2H8.40999V31.5566H8.01171V32.2ZM2.00676 28.9831H2.40504V28.332H2.00676V28.9831Z" fill="#B20000"/>
<path fill-rule="evenodd" clip-rule="evenodd" d="M1.60847 28.3397H2.80333V27.6886H1.60847V28.3397ZM1.20252 27.6886H3.20928V27.0453H1.20252V27.6886ZM6.01261 28.9754H6.4109V28.3397H6.01261V28.9754ZM5.60666 28.3397H6.81684V27.6886H5.60666V28.3397ZM5.20837 27.6886H7.20747V27.0453H5.20837V27.6886ZM5.60666 24.4717H7.61342V23.8283H5.60666V24.4717ZM4.81009 27.0453H7.61342V26.4019H4.81009V27.0453ZM0.804234 27.0453H3.59991V26.4019H0.804234V27.0453ZM1.20252 23.8283H2.40504V23.1849H1.20252V23.8283ZM0.804234 24.4717H2.80333V23.8283H0.804234V24.4717ZM6.4109 25.7585H8.40999V25.1227H6.41856L6.4109 25.7585ZM6.01261 23.8283H7.21513V23.1849H6.01261V23.8283ZM0 25.7585H2.00676V25.1227H0V25.7585ZM3.59991 24.4717H4.81009V23.8283H3.59991V24.4717ZM4.00585 23.8283H4.40414V23.1849H4.00585V23.8283ZM2.80333 25.7585H5.60666V25.1227H2.80333V25.7585ZM4.4118 35.4169H5.20837V34.7736H4.40414L4.4118 35.4169ZM3.59991 34.7736H4.80243V34.1302H3.59991V34.7736ZM3.19396 34.1302H3.99819V33.4868H3.20162L3.19396 34.1302ZM4.39648 34.1302H5.20837V33.4868H4.40414L4.39648 34.1302ZM0 34.7736H0.804234V34.1302H0V34.7736ZM0.398287 34.1302H1.20252V33.4868H0.398287V34.1302ZM7.61342 34.7736H8.40999V34.1302H7.61342V34.7736ZM7.20747 34.1302H8.01171V33.4868H7.21513L7.20747 34.1302ZM0 28.3397H0.398287V27.6963H0V28.3397ZM8.01171 28.3397H8.40999V27.6963H8.01171V28.3397ZM3.20162 22.5492H4.00585V21.9058H3.20162V22.5492ZM4.40414 22.5492H5.20837V21.9058H4.40414V22.5492ZM2.80333 21.9058H3.60757V21.2624H2.80333V21.9058ZM4.81009 21.9058H5.60666V21.2624H4.81009V21.9058ZM2.40504 21.2548H3.20162V20.6037H2.40504V21.2548ZM5.20837 21.2548H6.01261V20.6037H5.20837V21.2548ZM1.9991 20.6037H2.80333V19.968H1.9991V20.6037ZM5.60666 20.6037H6.4109V19.968H5.60666V20.6037ZM1.20252 19.968H2.40504V19.3169H1.20252V19.968ZM6.01261 19.968H7.21513V19.3169H6.01261V19.968ZM6.80918 20.6114H7.61342V19.9603H6.80918V20.6114ZM7.21513 21.2471H8.01171V20.6114H7.21513V21.2471ZM7.61342 21.8982H8.40999V21.2548H7.61342V21.8982ZM0.796575 20.6114H1.60847V19.9603H0.804234L0.796575 20.6114ZM0.398287 21.2471H1.20252V20.6114H0.398287V21.2471ZM0 21.9058H0.804234V21.2624H0V21.9058ZM1.60847 19.3246H2.00676V18.6812H1.60081L1.60847 19.3246ZM4.00585 21.2624H4.40414V20.6037H4.00585V21.2624ZM4.00585 28.3473H4.40414V27.6963H4.00585V28.3473ZM2.00676 34.7812H2.40504V34.1378H2.00676V34.7812ZM6.01261 34.7812H6.4109V34.1378H6.01261V34.7812ZM3.59991 30.2698H4.80243V29.6265H3.59991V30.2698ZM2.79567 29.6265H3.99819V28.9831H2.80333L2.79567 29.6265ZM3.19396 28.9754H3.59991V28.3397H3.19396V28.9754ZM2.39738 30.2698H3.19396V29.6265H2.40504L2.39738 30.2698ZM2.80333 30.9132H4.00585V30.2698H2.80333V30.9132ZM3.20162 31.5566H3.60757V30.9132H3.20162V31.5566ZM4.40414 30.9132H5.60666V30.2698H4.40414V30.9132ZM4.81009 31.5566H5.20837V30.9132H4.81009V31.5566ZM5.20837 30.2698H6.01261V29.6265H5.20837V30.2698ZM4.40414 29.6265H5.60666V28.9831H4.40414V29.6265ZM4.81009 28.9754H5.20837V28.3397H4.81009V28.9754ZM6.4109 30.2698H7.19981V29.6265H6.41856L6.4109 30.2698ZM6.80918 30.9132H8.01171V30.2698H6.81684L6.80918 30.9132ZM7.61342 30.2698H8.40999V29.6265H7.61342V30.2698ZM6.80918 29.6265H8.01171V28.9831H6.81684L6.80918 29.6265ZM7.21513 28.9754H7.61342V28.3397H7.21513V28.9754ZM7.21513 31.5566H7.61342V30.9132H7.21513V31.5566ZM0 30.2698H0.804234V29.6265H0V30.2698Z" fill="#B20000"/>
<path fill-rule="evenodd" clip-rule="evenodd" d="M0.398287 30.9132H1.60847V30.2698H0.398287V30.9132ZM1.20252 30.2698H2.00676V29.6264H1.20252V30.2698ZM0.398287 29.6264H1.60847V28.9831H0.398287V29.6264ZM0.804234 28.9754H1.20252V28.3397H0.804234V28.9754ZM0.804234 31.5566H1.20252V30.9132H0.804234V31.5566ZM0.398287 26.4018H2.00676V25.7585H0.398287V26.4018ZM2.40504 26.4018H4.01351V25.7585H2.40504V26.4018ZM4.40414 26.4018H6.01261V25.7585H4.40414V26.4018ZM6.4109 26.4018H8.01937V25.7585H6.4109V26.4018ZM3.20162 25.1227H5.20837V24.4793H3.20162V25.1227ZM0.398287 25.1227H2.40504V24.4793H0.398287V25.1227ZM6.01261 25.1227H8.01171V24.4793H6.01261V25.1227ZM8.01171 22.5492H8.40999V21.9058H8.01171V22.5492ZM0 22.5415H0.398287V21.8981H0V22.5415ZM3.59991 19.3246H4.00585V19.9603H3.60757L3.59991 19.3246ZM4.40414 19.3246H4.81009V19.9603H4.40414V19.3246ZM4.40414 18.0302H4.81009V18.6735H4.40414V18.0302ZM3.60757 18.0302H4.00585V18.6735H3.60757V18.0302ZM0.804234 35.4169H1.60081V36.0603H0.804234V35.4169ZM6.4109 23.1849H6.80918V22.5415H6.4109V23.1849ZM1.60081 23.1849H1.9991V22.5415H1.60847L1.60081 23.1849ZM3.60757 22.5415H4.81009V23.1849H3.59991L3.60757 22.5415Z" fill="#B20000"/>
</g>
</g>
<defs>
<clipPath id="clip0_7_993">
<path d="M0 19C0 8.50659 8.50659 0 19 0C29.4934 0 38 8.50659 38 19C38 29.4934 29.4934 38 19 38C8.50659 38 0 29.4934 0 19Z" fill="white"/>
</clipPath>
</defs>
</svg>