<svg width="139" height="28" viewBox="0 0 139 28" fill="none" xmlns="http://www.w3.org/2000/svg">
<rect width="28" height="28" rx="6" fill="white" fill-opacity="0.1"/>
<path d="M21.9166 13.0104C22.2412 13.0104 22.5103 12.7413 22.5103 12.4167V11.625C22.5103 8.13376 21.4495 7.07292 17.9583 7.07292H13.0103V8.85417C13.0103 9.17876 12.7412 9.44792 12.4166 9.44792C12.092 9.44792 11.8228 9.17876 11.8228 8.85417V7.07292H10.0416C6.55034 7.07292 5.4895 8.13376 5.4895 11.625V12.0208C5.4895 12.3454 5.75867 12.6146 6.08325 12.6146C6.84325 12.6146 7.46867 13.24 7.46867 14C7.46867 14.76 6.84325 15.3854 6.08325 15.3854C5.75867 15.3854 5.4895 15.6546 5.4895 15.9792V16.375C5.4895 19.8663 6.55034 20.9271 10.0416 20.9271H11.8228V19.1458C11.8228 18.8213 12.092 18.5521 12.4166 18.5521C12.7412 18.5521 13.0103 18.8213 13.0103 19.1458V20.9271H17.9583C21.4495 20.9271 22.5103 19.8663 22.5103 16.375C22.5103 16.0504 22.2412 15.7813 21.9166 15.7813C21.1566 15.7813 20.5312 15.1558 20.5312 14.3958C20.5312 13.6358 21.1566 13.0104 21.9166 13.0104ZM13.0103 15.7179C13.0103 16.0425 12.7412 16.3117 12.4166 16.3117C12.092 16.3117 11.8228 16.0425 11.8228 15.7179V12.2821C11.8228 11.9575 12.092 11.6883 12.4166 11.6883C12.7412 11.6883 13.0103 11.9575 13.0103 12.2821V15.7179Z" fill="#FAE2B9"/>
<path d="M136.148 16.7588H138.029V21.6395H135.428V19.0707H125.843V21.6395H123.242V16.7588H124.583C124.943 16.3429 125.21 15.7435 125.384 14.9606C125.564 14.1777 125.654 13.1961 125.654 12.0157C125.654 10.9637 125.585 9.83829 125.447 8.63951H136.148V16.7588ZM133.151 16.8046V10.9147H128.318C128.372 11.3796 128.399 11.9484 128.399 12.6212C128.399 13.5264 128.327 14.3337 128.183 15.0432C128.045 15.7465 127.838 16.3337 127.562 16.8046H133.151Z" fill="white"/>
<path d="M119.921 13.732C120.737 13.8727 121.358 14.1421 121.784 14.54C122.21 14.9317 122.423 15.4398 122.423 16.0642C122.423 16.7069 122.201 17.2762 121.757 17.772C121.313 18.2678 120.668 18.6566 119.822 18.9381C118.976 19.2197 117.971 19.3605 116.807 19.3605C115.679 19.3605 114.686 19.2105 113.828 18.9106C112.97 18.6045 112.298 18.1668 111.812 17.5976C111.332 17.0283 111.074 16.358 111.038 15.5867H113.945C114.023 16.107 114.305 16.5049 114.791 16.7804C115.283 17.0497 115.955 17.1844 116.807 17.1844C117.629 17.1844 118.262 17.0742 118.706 16.8538C119.15 16.6335 119.372 16.3029 119.372 15.8622C119.372 15.4827 119.18 15.2041 118.796 15.0266C118.418 14.8491 117.815 14.7603 116.987 14.7603H115.07V12.9239H116.933C117.653 12.9239 118.196 12.8229 118.562 12.6209C118.928 12.4128 119.111 12.1312 119.111 11.7762C119.111 11.3783 118.907 11.0753 118.499 10.8672C118.091 10.6529 117.533 10.5458 116.825 10.5458C116.045 10.5458 115.421 10.6713 114.953 10.9223C114.491 11.1732 114.221 11.5405 114.143 12.0241H111.245C111.299 11.3324 111.557 10.7111 112.019 10.1602C112.481 9.60313 113.132 9.16546 113.972 8.84715C114.812 8.52272 115.802 8.3605 116.942 8.3605C117.968 8.3605 118.874 8.48905 119.66 8.74615C120.452 9.00324 121.064 9.36134 121.496 9.82044C121.934 10.2734 122.153 10.7907 122.153 11.3722C122.153 11.917 121.967 12.4006 121.595 12.8229C121.229 13.2392 120.671 13.5422 119.921 13.732Z" fill="white"/>
<path d="M101.45 14.8246C101.678 15.5347 102.122 16.0825 102.782 16.4682C103.442 16.8538 104.279 17.0466 105.293 17.0466C106.067 17.0466 106.844 16.9334 107.624 16.7069C108.404 16.4804 109.103 16.1621 109.721 15.752V17.8088C109.043 18.2985 108.254 18.681 107.354 18.9565C106.46 19.2258 105.524 19.3605 104.546 19.3605C103.334 19.3605 102.248 19.131 101.288 18.6719C100.328 18.2066 99.578 17.5578 99.038 16.7253C98.498 15.8867 98.228 14.9226 98.228 13.833C98.228 12.7617 98.486 11.8129 99.002 10.9865C99.518 10.154 100.235 9.50825 101.153 9.04915C102.071 8.59005 103.109 8.3605 104.267 8.3605C105.431 8.3605 106.445 8.62678 107.309 9.15934C108.173 9.68577 108.836 10.4387 109.298 11.4181C109.766 12.3914 110 13.5269 110 14.8246H101.45ZM104.285 10.6193C103.523 10.6193 102.884 10.8152 102.368 11.2069C101.858 11.5926 101.522 12.119 101.36 12.7862H107.075C106.901 12.0945 106.571 11.562 106.085 11.1886C105.605 10.809 105.005 10.6193 104.285 10.6193Z" fill="white"/>
<path d="M90.6173 19.3605C89.3573 19.3605 88.2413 19.131 87.2693 18.6719C86.3033 18.2128 85.5533 17.57 85.0193 16.7436C84.4853 15.9111 84.2183 14.9532 84.2183 13.8697C84.2183 12.7801 84.4853 11.819 85.0193 10.9865C85.5533 10.154 86.3033 9.50825 87.2693 9.04915C88.2413 8.59005 89.3573 8.3605 90.6173 8.3605C91.8773 8.3605 92.9903 8.59005 93.9563 9.04915C94.9283 9.50825 95.6813 10.154 96.2153 10.9865C96.7493 11.819 97.0163 12.7801 97.0163 13.8697C97.0163 14.9532 96.7493 15.9111 96.2153 16.7436C95.6813 17.57 94.9283 18.2128 93.9563 18.6719C92.9903 19.131 91.8773 19.3605 90.6173 19.3605ZM90.6173 17.0375C91.3073 17.0375 91.9013 16.9089 92.3993 16.6518C92.9033 16.3947 93.2903 16.0305 93.5603 15.5592C93.8303 15.0817 93.9653 14.5185 93.9653 13.8697C93.9653 13.2208 93.8303 12.6577 93.5603 12.1802C93.2903 11.7027 92.9033 11.3355 92.3993 11.0784C91.8953 10.8213 91.3013 10.6927 90.6173 10.6927C89.9273 10.6927 89.3303 10.8213 88.8263 11.0784C88.3223 11.3355 87.9353 11.7027 87.6653 12.1802C87.3953 12.6577 87.2603 13.2208 87.2603 13.8697C87.2603 14.5185 87.3953 15.0817 87.6653 15.5592C87.9353 16.0305 88.3223 16.3947 88.8263 16.6518C89.3303 16.9089 89.9273 17.0375 90.6173 17.0375Z" fill="white"/>
<path d="M70.9766 19.6395V8.63951H82.4966V19.6395H79.4816V11.0775H73.9916V19.6395H70.9766Z" fill="white"/>
<path d="M64.3439 8.64515L63.7499 13.8605L64.3439 19.085H61.2299L60.9599 16.7345C60.4499 17.567 59.8049 18.2128 59.0249 18.6719C58.2509 19.131 57.3899 19.3605 56.4419 19.3605C55.4519 19.3605 54.5699 19.131 53.7959 18.6719C53.0219 18.2128 52.4189 17.567 51.9869 16.7345C51.5609 15.902 51.3479 14.947 51.3479 13.8697C51.3479 12.7862 51.5609 11.8282 51.9869 10.9957C52.4189 10.1571 53.0189 9.50825 53.7869 9.04915C54.5609 8.59005 55.4459 8.3605 56.4419 8.3605C57.3899 8.3605 58.2509 8.59005 59.0249 9.04915C59.8049 9.50213 60.4529 10.1449 60.9689 10.9774L61.2299 8.64515H64.3439ZM57.2699 16.9732C57.8279 16.9732 58.3589 16.8416 58.8629 16.5784C59.3669 16.3152 59.8079 15.9509 60.1859 15.4857C60.5699 15.0144 60.8699 14.4757 61.0859 13.8697C60.8699 13.2637 60.5699 12.725 60.1859 12.2537C59.8079 11.7823 59.3669 11.415 58.8629 11.1518C58.3589 10.8825 57.8279 10.7478 57.2699 10.7478C56.7179 10.7478 56.2229 10.8825 55.7849 11.1518C55.3529 11.415 55.0139 11.7854 54.7679 12.2628C54.5219 12.7342 54.3989 13.2698 54.3989 13.8697C54.3989 14.4696 54.5219 15.0052 54.7679 15.4765C55.0139 15.9479 55.3529 16.3152 55.7849 16.5784C56.2229 16.8416 56.7179 16.9732 57.2699 16.9732Z" fill="white"/>
<path d="M46.595 12.8189V8.63951H49.592V19.6395H46.595V15.2569H40.997V19.6395H38V8.63951H40.997V12.8189H46.595Z" fill="white"/>
</svg>
