<svg width="15" height="17" viewBox="0 0 15 17" fill="none" xmlns="http://www.w3.org/2000/svg">
<path d="M12.8875 6.13335C12.2312 3.05335 9.7125 1.66669 7.5 1.66669C7.5 1.66669 7.5 1.66669 7.49375 1.66669C5.2875 1.66669 2.7625 3.04669 2.10625 6.12669C1.375 9.56669 3.35 12.48 5.1375 14.3134C5.8 14.9934 6.65 15.3334 7.5 15.3334C8.35 15.3334 9.2 14.9934 9.85625 14.3134C11.6437 12.48 13.6187 9.57335 12.8875 6.13335ZM7.5 9.47335C6.4125 9.47335 5.53125 8.53335 5.53125 7.37335C5.53125 6.21335 6.4125 5.27335 7.5 5.27335C8.5875 5.27335 9.46875 6.21335 9.46875 7.37335C9.46875 8.53335 8.5875 9.47335 7.5 9.47335Z" fill="#DA9B2A"/>
</svg>