<svg width="28" height="28" viewBox="0 0 28 28" fill="none" xmlns="http://www.w3.org/2000/svg">
<rect width="28" height="28" rx="6" fill="white" fill-opacity="0.1"/>
<path d="M21.9166 13.0104C22.2412 13.0104 22.5103 12.7413 22.5103 12.4167V11.625C22.5103 8.13376 21.4495 7.07292 17.9583 7.07292H13.0103V8.85417C13.0103 9.17876 12.7412 9.44792 12.4166 9.44792C12.092 9.44792 11.8228 9.17876 11.8228 8.85417V7.07292H10.0416C6.55034 7.07292 5.4895 8.13376 5.4895 11.625V12.0208C5.4895 12.3454 5.75867 12.6146 6.08325 12.6146C6.84325 12.6146 7.46867 13.24 7.46867 14C7.46867 14.76 6.84325 15.3854 6.08325 15.3854C5.75867 15.3854 5.4895 15.6546 5.4895 15.9792V16.375C5.4895 19.8663 6.55034 20.9271 10.0416 20.9271H11.8228V19.1458C11.8228 18.8213 12.092 18.5521 12.4166 18.5521C12.7412 18.5521 13.0103 18.8213 13.0103 19.1458V20.9271H17.9583C21.4495 20.9271 22.5103 19.8663 22.5103 16.375C22.5103 16.0504 22.2412 15.7813 21.9166 15.7813C21.1566 15.7813 20.5312 15.1558 20.5312 14.3958C20.5312 13.6358 21.1566 13.0104 21.9166 13.0104ZM13.0103 15.7179C13.0103 16.0425 12.7412 16.3117 12.4166 16.3117C12.092 16.3117 11.8228 16.0425 11.8228 15.7179V12.2821C11.8228 11.9575 12.092 11.6883 12.4166 11.6883C12.7412 11.6883 13.0103 11.9575 13.0103 12.2821V15.7179Z" fill="#FAE2B9"/>
</svg>
