<svg width="47" height="46" viewBox="0 0 47 46" fill="none" xmlns="http://www.w3.org/2000/svg">
<path opacity="0.4" d="M31.5308 3.8335H15.4692C8.4925 3.8335 4.33333 7.99266 4.33333 14.9693V31.0118C4.33333 38.0077 8.4925 42.1668 15.4692 42.1668H31.5117C38.4883 42.1668 42.6475 38.0077 42.6475 31.031V14.9693C42.6667 7.99266 38.5075 3.8335 31.5308 3.8335Z" fill="#2D9CDB"/>
<path d="M19.3983 36.4166L22.6183 33.695C23.0975 33.2925 23.9025 33.2925 24.4008 33.695L27.6017 36.4166C28.3492 36.8 29.2692 36.4166 29.5375 35.6116L30.1508 33.7716C30.3042 33.3308 30.1508 32.6791 29.825 32.3533L26.6817 29.1908C26.4517 28.9608 26.2792 28.52 26.2792 28.2133V24.6675C26.2792 23.8625 26.8733 23.4791 27.6208 23.7858L34.0417 26.5458C35.0958 27.0058 35.9775 26.4308 35.9775 25.2808V23.4983C35.9775 22.5783 35.2875 21.505 34.425 21.1408L26.8733 17.8825C26.5475 17.7483 26.2983 17.3458 26.2983 17.0008V13.0333C26.2983 11.73 25.34 10.1966 24.19 9.60246C23.7683 9.39163 23.2892 9.39163 22.8675 9.60246C21.6983 10.1775 20.7592 11.73 20.7592 13.0333V17.0008C20.7592 17.3458 20.4908 17.7483 20.1842 17.8825L12.6325 21.1408C11.7892 21.505 11.08 22.5783 11.08 23.4983V25.2808C11.08 26.4308 11.9425 27.0058 13.0158 26.5458L19.4367 23.7858C20.165 23.46 20.7783 23.8625 20.7783 24.6675V28.2133C20.7783 28.5391 20.5867 28.98 20.3758 29.1908L17.175 32.3341C16.8492 32.66 16.6958 33.3116 16.8492 33.7525L17.4625 35.5925C17.7308 36.4166 18.6317 36.8 19.3983 36.4166Z" fill="#2D9CDB"/>
</svg>