<svg width="47" height="46" viewBox="0 0 47 46" fill="none" xmlns="http://www.w3.org/2000/svg">
<path opacity="0.4" d="M40.0217 16.1957C38.0092 7.34067 30.285 3.354 23.5 3.354C23.5 3.354 23.5 3.354 23.4808 3.354C16.715 3.354 8.97167 7.3215 6.95917 16.1765C4.71667 26.0665 10.7733 34.4423 16.255 39.7132C18.2867 41.6682 20.8933 42.6457 23.5 42.6457C26.1067 42.6457 28.7133 41.6682 30.7258 39.7132C36.2075 34.4423 42.2642 26.0857 40.0217 16.1957Z" fill="#EB5757"/>
<path d="M23.5 25.7981C26.8344 25.7981 29.5375 23.0951 29.5375 19.7606C29.5375 16.4262 26.8344 13.7231 23.5 13.7231C20.1656 13.7231 17.4625 16.4262 17.4625 19.7606C17.4625 23.0951 20.1656 25.7981 23.5 25.7981Z" fill="#EB5757"/>
</svg>