<svg width="47" height="46" viewBox="0 0 47 46" fill="none" xmlns="http://www.w3.org/2000/svg">
<path opacity="0.4" d="M23.5 42.1668C34.0855 42.1668 42.6667 33.5856 42.6667 23.0002C42.6667 12.4147 34.0855 3.8335 23.5 3.8335C12.9145 3.8335 4.33333 12.4147 4.33333 23.0002C4.33333 33.5856 12.9145 42.1668 23.5 42.1668Z" fill="#27AE60"/>
<path d="M24.1325 32.5831C23.7875 32.6981 23.1933 32.6981 22.8483 32.5831C19.8583 31.5673 13.15 27.2931 13.15 20.0481C13.15 16.8472 15.7183 14.2598 18.9 14.2598C20.7783 14.2598 22.4458 15.1606 23.5 16.5789C24.535 15.1797 26.2217 14.2598 28.1 14.2598C31.2817 14.2598 33.85 16.8472 33.85 20.0481C33.85 27.2931 27.1417 31.5673 24.1325 32.5831Z" fill="#27AE60"/>
</svg>