<svg width="47" height="46" viewBox="0 0 47 46" fill="none" xmlns="http://www.w3.org/2000/svg">
<path opacity="0.4" d="M31.5308 3.8335H15.4884C8.51169 3.8335 4.35252 7.99266 4.35252 14.9693V31.0118C4.35252 37.9885 8.51169 42.1476 15.4884 42.1476H31.5308C38.5075 42.1476 42.6667 37.9885 42.6667 31.0118V14.9693C42.6667 7.99266 38.5075 3.8335 31.5308 3.8335Z" fill="#F2994A"/>
<path d="M22.5417 15.5059V33.0626C22.5417 33.7526 21.8517 34.2126 21.2192 33.9442C18.9 32.9476 15.8716 32.0276 13.7633 31.7593L13.3991 31.7209C12.23 31.5676 11.2717 30.4751 11.2717 29.2867V14.5284C11.2717 13.0717 12.46 11.9792 13.9167 12.0942C16.3125 12.2859 19.8583 13.4359 22.0817 14.7009C22.3692 14.8351 22.5417 15.1609 22.5417 15.5059Z" fill="#F2994A"/>
<path d="M35.7283 14.7586V29.2677C35.7283 30.456 34.77 31.5486 33.6009 31.7019L33.1983 31.7402C31.1092 32.0277 28.1 32.9286 25.7808 33.9061C25.1483 34.1744 24.4583 33.7144 24.4583 33.0244V15.4869C24.4583 15.1419 24.6308 14.8161 24.9375 14.6436C27.1608 13.3977 30.63 12.286 32.9875 12.0752H33.0641C34.54 12.0944 35.7283 13.2827 35.7283 14.7586Z" fill="#F2994A"/>
</svg>