<svg width="47" height="46" viewBox="0 0 47 46" fill="none" xmlns="http://www.w3.org/2000/svg">
<path opacity="0.4" d="M31.5308 3.8335H15.4883C8.51168 3.8335 4.35249 7.99266 4.35249 14.9693V31.0118C4.35249 37.9885 8.51168 42.1477 15.4883 42.1477H31.5308C38.5075 42.1477 42.6667 37.9885 42.6667 31.0118V14.9693C42.6667 7.99266 38.5075 3.8335 31.5308 3.8335Z" fill="#BB6BD9"/>
<path d="M33.875 17H33.5V14.75C33.5 12.65 28.85 11 23 11C17.15 11 12.5 12.65 12.5 14.75V17H12.125C11.5039 17 11 17.5034 11 18.125V21.875C11 22.4961 11.5039 23 12.125 23H12.5V30.5C12.5 31.3283 13.1717 32 14 32V33.5C14 34.3283 14.6717 35 15.5 35H17C17.8283 35 18.5 34.3283 18.5 33.5V32H27.5V33.5C27.5 34.3283 28.1717 35 29 35H30.5C31.3283 35 32 34.3283 32 33.5V32H32.3C33.05 32 33.5 31.4 33.5 30.8V23H33.875C34.4961 23 35 22.4961 35 21.875V18.125C35 17.5034 34.4961 17 33.875 17ZM16.25 29.75C15.4217 29.75 14.75 29.0783 14.75 28.25C14.75 27.4217 15.4217 26.75 16.25 26.75C17.0783 26.75 17.75 27.4217 17.75 28.25C17.75 29.0783 17.0783 29.75 16.25 29.75ZM17 24.5C16.1717 24.5 15.5 23.8283 15.5 23V17C15.5 16.1717 16.1717 15.5 17 15.5H29C29.8283 15.5 30.5 16.1717 30.5 17V23C30.5 23.8283 29.8283 24.5 29 24.5H17ZM29.75 29.75C28.9217 29.75 28.25 29.0783 28.25 28.25C28.25 27.4217 28.9217 26.75 29.75 26.75C30.5783 26.75 31.25 27.4217 31.25 28.25C31.25 29.0783 30.5783 29.75 29.75 29.75Z" fill="#BB6BD9"/>
</svg>