<svg width="47" height="46" viewBox="0 0 47 46" fill="none" xmlns="http://www.w3.org/2000/svg">
<path opacity="0.4" d="M42.6667 14.9693V31.031C42.6667 36.4168 40.1942 40.1159 35.8433 41.5151C34.5783 41.9559 33.1217 42.1668 31.5308 42.1668H15.4692C13.8783 42.1668 12.4217 41.9559 11.1567 41.5151C6.80582 40.1159 4.33333 36.4168 4.33333 31.031V14.9693C4.33333 7.99266 8.49249 3.8335 15.4692 3.8335H31.5308C38.5075 3.8335 42.6667 7.99266 42.6667 14.9693Z" fill="#828282"/>
<path d="M35.8433 41.5151C34.5783 41.9559 33.1217 42.1668 31.5308 42.1668H15.4692C13.8783 42.1668 12.4217 41.9559 11.1567 41.5151C11.8275 36.4551 17.1175 32.5259 23.5 32.5259C29.8825 32.5259 35.1725 36.4551 35.8433 41.5151Z" fill="#828282"/>
<path d="M30.3617 22.1952C30.3617 25.9902 27.295 29.076 23.5 29.076C19.705 29.076 16.6383 25.9902 16.6383 22.1952C16.6383 18.4002 19.705 15.3335 23.5 15.3335C27.295 15.3335 30.3617 18.4002 30.3617 22.1952Z" fill="#828282"/>
</svg>