<svg width="24" height="24" viewBox="0 0 24 24" fill="none" xmlns="http://www.w3.org/2000/svg">
<g clip-path="url(#clip0_2_93)">
<path d="M21.9688 6.5H21.625V4.4375C21.625 2.5125 17.3625 1 12 1C6.6375 1 2.375 2.5125 2.375 4.4375V6.5H2.03125C1.46191 6.5 1 6.96148 1 7.53125V10.9688C1 11.5381 1.46191 12 2.03125 12H2.375V18.875C2.375 19.6343 2.99074 20.25 3.75 20.25V21.625C3.75 22.3843 4.36574 23 5.125 23H6.5C7.25926 23 7.875 22.3843 7.875 21.625V20.25H16.125V21.625C16.125 22.3843 16.7407 23 17.5 23H18.875C19.6343 23 20.25 22.3843 20.25 21.625V20.25H20.525C21.2125 20.25 21.625 19.7 21.625 19.15V12H21.9688C22.5381 12 23 11.5381 23 10.9688V7.53125C23 6.96148 22.5381 6.5 21.9688 6.5ZM5.8125 18.1875C5.05324 18.1875 4.4375 17.5718 4.4375 16.8125C4.4375 16.0532 5.05324 15.4375 5.8125 15.4375C6.57176 15.4375 7.1875 16.0532 7.1875 16.8125C7.1875 17.5718 6.57176 18.1875 5.8125 18.1875ZM6.5 13.375C5.74074 13.375 5.125 12.7593 5.125 12V6.5C5.125 5.74074 5.74074 5.125 6.5 5.125H17.5C18.2593 5.125 18.875 5.74074 18.875 6.5V12C18.875 12.7593 18.2593 13.375 17.5 13.375H6.5ZM18.1875 18.1875C17.4282 18.1875 16.8125 17.5718 16.8125 16.8125C16.8125 16.0532 17.4282 15.4375 18.1875 15.4375C18.9468 15.4375 19.5625 16.0532 19.5625 16.8125C19.5625 17.5718 18.9468 18.1875 18.1875 18.1875Z" fill="white"/>
</g>
<defs>
<clipPath id="clip0_2_93">
<rect width="22" height="22" fill="white" transform="translate(1 1)"/>
</clipPath>
</defs>
</svg>