<svg width="25" height="24" viewBox="0 0 25 24" fill="none" xmlns="http://www.w3.org/2000/svg">
<path d="M17.69 4.96C17.69 4.97 17.69 4.97 17.69 4.98C17.44 4.97 17.19 4.96 16.92 4.96H9.21997L10.29 3.9C11.27 2.91 12.35 2 13.6 2C14.86 2 15.94 2.91 16.92 3.9L17.48 4.46C17.62 4.59 17.69 4.77 17.69 4.96Z" fill="#FAE2B9"/>
<path d="M21.34 13.1702C21.73 13.1702 22.04 12.8502 22.04 12.4502V11.5702C22.04 7.6402 20.84 6.4502 16.92 6.4502H10.62H8.07996C4.15996 6.4502 2.95996 7.6502 2.95996 11.5702V12.0002C2.95996 12.4002 3.26996 12.7102 3.65996 12.7102C4.49996 12.7102 5.16996 13.3902 5.16996 14.2202C5.16996 15.0502 4.49996 15.7402 3.65996 15.7402C3.26996 15.7402 2.95996 16.0502 2.95996 16.4502V16.8802C2.95996 20.8102 4.15996 22.0002 8.07996 22.0002H10.61H16.91C20.83 22.0002 22.03 20.8002 22.03 16.8802C22.03 16.4902 21.72 16.1702 21.33 16.1702C20.49 16.1702 19.82 15.5002 19.82 14.6702C19.83 13.8402 20.5 13.1702 21.34 13.1702ZM11.32 18.8602C11.32 19.2502 11 19.5702 10.61 19.5702C10.22 19.5702 9.89996 19.2502 9.89996 18.8602V16.1802C9.89996 15.7902 10.22 15.4702 10.61 15.4702C11 15.4702 11.32 15.7902 11.32 16.1802V18.8602ZM11.32 12.2702C11.32 12.6602 11 12.9802 10.61 12.9802C10.22 12.9802 9.89996 12.6602 9.89996 12.2702V9.5902C9.89996 9.2002 10.22 8.8802 10.61 8.8802C11 8.8802 11.32 9.2002 11.32 9.5902V12.2702Z" fill="#FAE2B9"/>
</svg>