<svg width="22" height="22" viewBox="0 0 22 22" fill="none" xmlns="http://www.w3.org/2000/svg">
<path d="M11.1101 11.7151C11.0459 11.7059 10.9634 11.7059 10.8901 11.7151C9.27674 11.6601 7.99341 10.3401 7.99341 8.7176C7.99341 7.05844 9.33174 5.71094 11.0001 5.71094C12.6592 5.71094 14.0067 7.05844 14.0067 8.7176C13.9976 10.3401 12.7234 11.6601 11.1101 11.7151Z" stroke="white" stroke-width="1.5" stroke-linecap="round" stroke-linejoin="round"/>
<path d="M17.1784 17.7649C15.5468 19.2591 13.3834 20.1666 11.0001 20.1666C8.61678 20.1666 6.45344 19.2591 4.82178 17.7649C4.91344 16.9033 5.46344 16.0599 6.44428 15.3999C8.95594 13.7316 13.0626 13.7316 15.5559 15.3999C16.5368 16.0599 17.0868 16.9033 17.1784 17.7649Z" stroke="white" stroke-width="1.5" stroke-linecap="round" stroke-linejoin="round"/>
<path d="M10.9999 20.1666C16.0625 20.1666 20.1666 16.0625 20.1666 10.9999C20.1666 5.93731 16.0625 1.83325 10.9999 1.83325C5.93731 1.83325 1.83325 5.93731 1.83325 10.9999C1.83325 16.0625 5.93731 20.1666 10.9999 20.1666Z" stroke="white" stroke-width="1.5" stroke-linecap="round" stroke-linejoin="round"/>
</svg>