<svg width="14" height="14" viewBox="0 0 14 14" fill="none" xmlns="http://www.w3.org/2000/svg">
<path d="M7.00033 1.16675C3.78616 1.16675 1.16699 3.78591 1.16699 7.00008C1.16699 10.2142 3.78616 12.8334 7.00033 12.8334C10.2145 12.8334 12.8337 10.2142 12.8337 7.00008C12.8337 3.78591 10.2145 1.16675 7.00033 1.16675ZM6.56283 4.66675C6.56283 4.42758 6.76116 4.22925 7.00033 4.22925C7.23949 4.22925 7.43783 4.42758 7.43783 4.66675V7.58342C7.43783 7.82258 7.23949 8.02092 7.00033 8.02092C6.76116 8.02092 6.56283 7.82258 6.56283 7.58342V4.66675ZM7.53699 9.55508C7.50783 9.63091 7.46699 9.68925 7.41449 9.74758C7.35616 9.80008 7.29199 9.84092 7.22199 9.87008C7.15199 9.89925 7.07616 9.91675 7.00033 9.91675C6.92449 9.91675 6.84866 9.89925 6.77866 9.87008C6.70866 9.84092 6.64449 9.80008 6.58616 9.74758C6.53366 9.68925 6.49283 9.63091 6.46366 9.55508C6.43449 9.48508 6.41699 9.40925 6.41699 9.33342C6.41699 9.25758 6.43449 9.18175 6.46366 9.11175C6.49283 9.04175 6.53366 8.97758 6.58616 8.91925C6.64449 8.86675 6.70866 8.82592 6.77866 8.79675C6.91866 8.73842 7.08199 8.73842 7.22199 8.79675C7.29199 8.82592 7.35616 8.86675 7.41449 8.91925C7.46699 8.97758 7.50783 9.04175 7.53699 9.11175C7.56616 9.18175 7.58366 9.25758 7.58366 9.33342C7.58366 9.40925 7.56616 9.48508 7.53699 9.55508Z" fill="#1A9016"/>
</svg>